<?xml version="1.0" encoding="UTF-8" standalone="no"?>
<!-- Created with Inkscape (http://www.inkscape.org/) -->

<svg
   width="210mm"
   height="297mm"
   viewBox="0 0 210 297"
   version="1.1"
   id="svg1"
   inkscape:version="1.4 (86a8ad7, 2024-10-11)"
   sodipodi:docname="boneco.svg"
   inkscape:export-filename="tatu1png.png"
   inkscape:export-xdpi="96"
   inkscape:export-ydpi="96"
   xmlns:inkscape="http://www.inkscape.org/namespaces/inkscape"
   xmlns:sodipodi="http://sodipodi.sourceforge.net/DTD/sodipodi-0.dtd"
   xmlns="http://www.w3.org/2000/svg"
   xmlns:svg="http://www.w3.org/2000/svg">
  <sodipodi:namedview
     id="namedview1"
     pagecolor="#ffffff"
     bordercolor="#000000"
     borderopacity="0.25"
     inkscape:showpageshadow="2"
     inkscape:pageopacity="0.0"
     inkscape:pagecheckerboard="0"
     inkscape:deskcolor="#d1d1d1"
     inkscape:document-units="mm"
     inkscape:zoom="0.52827581"
     inkscape:cx="397.51962"
     inkscape:cy="561.25984"
     inkscape:window-width="1440"
     inkscape:window-height="837"
     inkscape:window-x="-8"
     inkscape:window-y="-8"
     inkscape:window-maximized="1"
     inkscape:current-layer="layer1" />
  <defs
     id="defs1" />
  <g
     inkscape:label="Camada 1"
     inkscape:groupmode="layer"
     id="layer1">
    <g
       id="g633"
       transform="matrix(0.32429095,0,0,0.32429095,-512.35848,-120.65779)"
       inkscape:label="carlos"
       style="display:inline">
      <g
         id="g616"
         transform="matrix(0.62857122,0.20577152,-0.20072925,0.64436078,1134.2064,574.61188)">
        <path
           id="path605"
           style="fill:#06baf2;fill-opacity:1;fill-rule:evenodd;stroke:#0f7696;stroke-width:7.632;stroke-linejoin:bevel;stroke-dasharray:none;stroke-opacity:0.847059;paint-order:stroke fill markers"
           d="m 1035.128,-33.812407 v 22.069455 c 0,1.247443 1.5114,3.6576574 0.3054,3.6576574 h -4.4457 c -32.23735,0 -58.75821,23.3322316 -63.84467,54.0840376 h -11.38276 c -8.04704,0 -14.52522,6.478179 -14.52522,14.525211 v 0.392741 c 0,8.047032 6.47818,14.525212 14.52522,14.525212 h 10.43243 v 17.264579 h -10.43243 c -8.04704,0 -14.52522,6.47818 -14.52522,14.525214 v 0.39326 c 0,8.04703 6.47818,14.52521 14.52522,14.52521 h 10.43243 v 20.77341 c 0,0.37233 0.0112,0.78637 0.0114,1.16168 h -10.4438 c -8.04704,0 -14.52522,6.4787 -14.52522,14.52573 v 0.39274 c 0,8.04703 6.47818,14.52521 14.52522,14.52521 h 11.75742 c 3.45977,28.48185 16.20609,55.35631 63.46998,55.35631 h 64.7945 c 47.264,0 60.0098,-26.87448 63.4695,-55.35631 h 11.758 c 8.047,0 14.5252,-6.47818 14.5252,-14.52521 v -0.39274 c 0,-8.04703 -6.4782,-14.52573 -14.5252,-14.52573 h -10.4438 c 10e-5,-0.37531 0.011,-0.78935 0.011,-1.16168 v -20.77341 h 10.4325 c 8.047,0 14.5252,-6.47818 14.5252,-14.52521 v -0.39326 c 0,-8.047034 -6.4782,-14.525214 -14.5252,-14.525214 h -10.4325 V 75.441907 h 10.4325 c 8.047,0 14.5252,-6.47818 14.5252,-14.525212 v -0.392741 c 0,-8.047032 -6.4782,-14.525211 -14.5252,-14.525211 h -11.3833 c -5.0865,-30.751792 -31.6068,-54.0840376 -63.8442,-54.0840376 -1.4819,0 -4.646,1.2069617 -4.4457,0 0.1974,-1.1897538 0.3054,-2.4102054 0.3054,-3.6576574 v -14.661122 c 0,-2.792448 -56.5142,8.822617 -56.5139,0 z"
           sodipodi:nodetypes="sssscssssccsssscscsssscsscsssscscssssccsssscssssss" />
        <rect
           style="fill:#66d2f6;fill-opacity:1;fill-rule:evenodd;stroke-width:1.42137;stroke-linejoin:bevel;paint-order:stroke fill markers"
           id="rect605"
           width="167.6008"
           height="216.62689"
           x="980.79553"
           y="7.9246645"
           ry="66.191551"
           transform="rotate(-0.3392043)" />
        <g
           id="g607"
           transform="matrix(0.81827294,-0.45432867,0.41732219,0.89083414,269.2034,292.61492)">
          <rect
             style="fill:#84dff9;fill-opacity:1;fill-rule:evenodd;stroke:none;stroke-width:7.65608;stroke-linejoin:bevel;stroke-dasharray:none;stroke-opacity:0.847059;paint-order:stroke fill markers"
             id="rect606"
             width="192.99132"
             height="3.2373202"
             x="754.03162"
             y="-214.31653"
             ry="0"
             transform="matrix(0.88826978,0.45932211,-0.51961221,0.85440222,0,0)" />
          <rect
             style="fill:#35bbe5;fill-opacity:1;fill-rule:evenodd;stroke:none;stroke-width:7.65608;stroke-linejoin:bevel;stroke-dasharray:none;stroke-opacity:0.847059;paint-order:stroke fill markers"
             id="rect607"
             width="192.99132"
             height="3.2373202"
             x="754.28021"
             y="-217.66515"
             ry="0"
             transform="matrix(0.88826978,0.45932211,-0.51961221,0.85440222,0,0)" />
        </g>
        <path
           style="fill:#b6f7fe;fill-opacity:1;fill-rule:evenodd;stroke:none;stroke-width:5.46895;stroke-linejoin:bevel;stroke-dasharray:none;stroke-opacity:0.847059;paint-order:stroke fill markers"
           d="m 1010.7909,29.645703 c -23.41637,33.595159 -11.84471,129.285937 -11.69939,133.387707 0.58379,16.47664 20.81769,18.83842 37.08899,20.3672 0,0 -24.9921,-12.83655 -25.2067,-22.63704 -0.9278,-42.36098 -7.8222,-69.031606 8.4754,-122.227945 1.1449,-3.737309 9.1023,-2.740602 12.999,-3.047719 9.7854,-0.771159 20.1484,0.729737 20.1484,0.729737 -12.6421,-17.716846 -35.7796,-15.217471 -41.8057,-6.57194 z"
           id="path607"
           sodipodi:nodetypes="sscssscs" />
        <g
           id="g609"
           transform="matrix(0.81827294,-0.45432867,0.41732219,0.89083414,269.2034,242.87294)">
          <rect
             style="fill:#84dff9;fill-opacity:1;fill-rule:evenodd;stroke:none;stroke-width:7.65608;stroke-linejoin:bevel;stroke-dasharray:none;stroke-opacity:0.847059;paint-order:stroke fill markers"
             id="rect608"
             width="192.99132"
             height="3.2373202"
             x="754.03162"
             y="-214.31653"
             ry="0"
             transform="matrix(0.88826978,0.45932211,-0.51961221,0.85440222,0,0)" />
          <rect
             style="fill:#35bbe5;fill-opacity:1;fill-rule:evenodd;stroke:none;stroke-width:7.65608;stroke-linejoin:bevel;stroke-dasharray:none;stroke-opacity:0.847059;paint-order:stroke fill markers"
             id="rect609"
             width="192.99132"
             height="3.2373202"
             x="754.28021"
             y="-217.66515"
             ry="0"
             transform="matrix(0.88826978,0.45932211,-0.51961221,0.85440222,0,0)" />
        </g>
        <g
           id="g611"
           transform="matrix(0.81827294,-0.45432867,0.41732219,0.89083414,272.31726,353.33528)">
          <rect
             style="fill:#84dff9;fill-opacity:1;fill-rule:evenodd;stroke:none;stroke-width:7.65608;stroke-linejoin:bevel;stroke-dasharray:none;stroke-opacity:0.847059;paint-order:stroke fill markers"
             id="rect610"
             width="192.99132"
             height="3.2373202"
             x="754.03162"
             y="-214.31653"
             ry="0"
             transform="matrix(0.88826978,0.45932211,-0.51961221,0.85440222,0,0)" />
          <rect
             style="fill:#35bbe5;fill-opacity:1;fill-rule:evenodd;stroke:none;stroke-width:7.65608;stroke-linejoin:bevel;stroke-dasharray:none;stroke-opacity:0.847059;paint-order:stroke fill markers"
             id="rect611"
             width="192.99132"
             height="3.2373202"
             x="754.28021"
             y="-217.66515"
             ry="0"
             transform="matrix(0.88826978,0.45932211,-0.51961221,0.85440222,0,0)" />
        </g>
        <rect
           style="fill:#06baf2;fill-opacity:1;fill-rule:evenodd;stroke:none;stroke-width:7.16087;stroke-linejoin:bevel;stroke-dasharray:none;stroke-opacity:0.847059;paint-order:stroke fill markers"
           id="rect612"
           width="179.16093"
           height="4.7716227"
           x="997.27991"
           y="108.26151"
           ry="0"
           transform="matrix(0.99998003,0.00632047,-0.19521381,0.98076071,0,0)" />
        <rect
           style="fill:#06baf2;fill-opacity:1;fill-rule:evenodd;stroke:none;stroke-width:7.16087;stroke-linejoin:bevel;stroke-dasharray:none;stroke-opacity:0.847059;paint-order:stroke fill markers"
           id="rect613"
           width="179.16093"
           height="4.7716227"
           x="985.10077"
           y="51.190926"
           ry="0"
           transform="matrix(0.99998003,0.00632047,-0.19521381,0.98076071,0,0)" />
        <rect
           style="fill:#06baf2;fill-opacity:1;fill-rule:evenodd;stroke:none;stroke-width:7.16087;stroke-linejoin:bevel;stroke-dasharray:none;stroke-opacity:0.847059;paint-order:stroke fill markers"
           id="rect614"
           width="179.16093"
           height="4.7716227"
           x="1006.9706"
           y="165.87729"
           ry="0"
           transform="matrix(0.99998003,0.00632047,-0.19521381,0.98076071,0,0)" />
        <g
           id="g615"
           transform="translate(2.2128647)">
          <path
             style="opacity:1;fill:#047999;fill-opacity:1;fill-rule:evenodd;stroke:#005e74;stroke-width:7.65101;stroke-linejoin:bevel;stroke-dasharray:none;stroke-opacity:1;paint-order:stroke fill markers"
             d="m 1028.0159,-26.528844 66.5296,-0.129748 c 0,0 4.5139,-22.02709 -2.5505,-28.372 -15.3961,-13.82808 -47.0661,-13.158855 -62.0736,1.09011 -6.6423,6.30654 -1.9055,27.411638 -1.9055,27.411638 z"
             id="path614"
             sodipodi:nodetypes="ccaac" />
          <path
             style="opacity:1;fill:#036e88;fill-opacity:1;fill-rule:evenodd;stroke:none;stroke-width:7.65101;stroke-linejoin:bevel;stroke-dasharray:none;stroke-opacity:0.815686;paint-order:stroke fill markers"
             d="m 1053.0852,-61.915609 c -7.3302,18.591252 -9.591,21.114965 -1.6238,25.285799 10.8746,5.692792 -3.5955,-0.218458 35.2294,10.154706 0,0 -55.4889,0.82839 -56.4063,0.644901 -0.9175,-0.183486 -3.2288,-1.643024 -3.7772,-3.191448 -10.3165,-29.132303 24.8602,-39.125244 26.5779,-32.893958 z"
             id="path615"
             sodipodi:nodetypes="cscssc" />
          <ellipse
             style="opacity:1;fill:#0aa9ce;fill-opacity:1;fill-rule:evenodd;stroke:none;stroke-width:7.65101;stroke-linejoin:bevel;stroke-dasharray:none;stroke-opacity:0.815686;paint-order:stroke fill markers"
             id="ellipse615"
             cx="944.50824"
             cy="539.06079"
             rx="2.7522933"
             ry="7.1559634"
             transform="rotate(-32.306382)" />
        </g>
      </g>
      <path
         id="path616"
         style="fill:#18286e;fill-opacity:1;fill-rule:evenodd;stroke-width:1.43353;stroke-linejoin:bevel;paint-order:stroke fill markers"
         d="m 2018.7001,980.72268 c 0,63.79482 -47.0632,44.93522 -105.1187,44.93522 -58.0555,0 -105.1187,18.8596 -105.1187,-44.93522 0,-48.11464 3.5761,-135.28901 41.6431,-173.67319 20.5312,-20.70223 88.6945,-27.42174 118.2506,-0.91261 40.3331,36.17491 50.3437,124.68099 50.3437,174.5858 z"
         sodipodi:nodetypes="ssssss" />
      <path
         style="fill:#bd6e34;fill-opacity:1;stroke:none;stroke-width:0.95265;stroke-miterlimit:2.4;paint-order:stroke fill markers"
         d="m 1960.5246,797.08842 c 33.7186,37.81299 23.796,38.24563 31.0637,49.40538 2.5377,3.89674 13.9961,6.91289 22.2334,14.59958 5.7484,5.36413 7.0512,16.0294 7.638,16.79233 2.7537,3.57969 3.223,8.65476 1.58,10.15085 -0.747,0.68019 -3.6865,1.31532 -4.7532,-0.3933 0.557,5.66029 -4.858,7.99161 -7.7427,5.10703 -2.3017,-2.30179 0.031,-0.37563 0.031,-0.37563 0,0 1.9295,4.19834 -3.4413,5.73288 -5.3709,1.53453 -14.6021,-1.96473 -14.6021,-1.96473 -4.5651,-44.73785 -64.8645,-62.36083 -64.2322,-63.76016 1.5877,-3.51342 30.5976,-43.97485 30.5976,-43.97485 z"
         id="path617"
         sodipodi:nodetypes="csssscscscscc" />
      <ellipse
         style="fill:#bd6e34;fill-opacity:1;fill-rule:evenodd;stroke:none;stroke-width:6.60966;stroke-linejoin:bevel;stroke-dasharray:none;stroke-opacity:1;paint-order:stroke fill markers"
         id="ellipse617"
         cx="1908.9253"
         cy="804.06445"
         rx="38.773396"
         ry="30.033487" />
      <path
         id="path618"
         style="fill:#d49666;fill-opacity:1;fill-rule:evenodd;stroke-width:1.79539;stroke-linejoin:bevel;paint-order:stroke fill markers"
         d="m 1906.626,613.86647 a 94.567553,103.37531 0 0 0 -93.853,92.45037 18.652499,25.16964 0 0 0 -11.2677,23.0891 18.652499,25.16964 0 0 0 17.139,25.03589 94.567553,103.37531 0 0 0 87.9817,66.17523 94.567553,103.37531 0 0 0 94.5677,-103.3753 94.567553,103.37531 0 0 0 -94.5677,-103.37529 z" />
      <path
         style="fill:#3f3a3a;fill-opacity:1;fill-rule:evenodd;stroke:none;stroke-width:6.86896;stroke-linejoin:bevel;stroke-dasharray:none;stroke-opacity:1;paint-order:stroke fill markers"
         d="m 1808.9121,947.81345 c 0,0 102.0269,23.00004 106.0721,23.00004 4.0451,0 103.1505,-15.33337 103.1505,-15.33337 0.6617,-0.34834 1.8386,33.91693 -2.0225,50.14578 -2.6173,11.0011 -11.5974,31.5052 -14.0103,30.6583 l -186.525,-5.1112 c 0,0 -5.9734,-22.3103 -7.1142,-33.7817 -1.6346,-16.43683 0.4494,-49.57785 0.4494,-49.57785 z"
         id="path619"
         sodipodi:nodetypes="cscaccac" />
      <path
         id="path620"
         style="fill:#020100;fill-rule:evenodd;stroke-width:1.81931;stroke-linejoin:bevel;paint-order:stroke fill markers"
         d="m 1911.6986,1042.3275 c 0,27.2563 -22.0825,20.1013 -49.3228,20.1013 -27.2402,0 -49.3227,7.155 -49.3227,-20.1013 0,-8.9156 2.3627,-18.393 6.4959,-27.1108 8.5025,-17.93347 24.497,-32.65214 42.8268,-32.65214 18.875,0 35.2736,15.60719 43.5654,34.26044 3.6749,8.267 5.7574,17.1324 5.7574,25.5025 z"
         sodipodi:nodetypes="sssssss" />
      <g
         id="g621"
         transform="matrix(0.86604503,0,0,0.86604503,1514.5172,530.26712)">
        <ellipse
           style="opacity:1;fill:#c8c2c2;fill-opacity:1;fill-rule:evenodd;stroke:none;stroke-width:3.81601;stroke-linejoin:bevel;stroke-dasharray:none;stroke-opacity:1;paint-order:stroke fill markers"
           id="ellipse620"
           cx="463.66977"
           cy="532.66064"
           rx="4.0366974"
           ry="4.9541287" />
        <ellipse
           style="opacity:1;fill:#c8c2c2;fill-opacity:1;fill-rule:evenodd;stroke:none;stroke-width:3.81601;stroke-linejoin:bevel;stroke-dasharray:none;stroke-opacity:1;paint-order:stroke fill markers"
           id="ellipse621"
           cx="463.66974"
           cy="516.8808"
           rx="4.0366974"
           ry="4.9541287" />
      </g>
      <path
         style="fill:#211e1e;fill-opacity:1;fill-rule:evenodd;stroke:none;stroke-width:6.60966;stroke-linejoin:bevel;stroke-dasharray:none;stroke-opacity:1;paint-order:stroke fill markers"
         d="m 1808.9122,947.13926 105.6225,22.4729 102.9259,-14.8321 0.2247,4.04513 -102.4764,12.58481 -106.5215,-21.34926 z"
         id="path621" />
      <path
         id="path622"
         style="fill:#000000;fill-opacity:1;fill-rule:evenodd;stroke:none;stroke-width:6.60966;stroke-linejoin:bevel;stroke-dasharray:none;stroke-opacity:1;paint-order:stroke fill markers"
         d="m 1818.5069,680.11688 c 0,0 -2.026,5.36304 -2.5425,7.46856 -0.4095,1.66935 -3.0589,15.65237 -3.0589,16.44691 0,0.79454 -0.6157,6.2006 -0.9139,5.32329 -0.914,-2.68946 6.8331,13.98386 8.8989,16.36747 2.0658,2.38362 -0.3177,1.27112 -0.3177,5.40272 0,2.96344 3.966,10.10417 5.5275,12.89143 -0.8705,-2.84592 2.6089,-6.82167 4.6424,-9.87187 2.2247,-3.33705 2.8605,-4.13196 -1.1122,-9.85262 -3.9726,-5.72067 -5.4027,-7.62744 -5.4027,-7.62744 0,0 5.2436,-5.72074 11.4409,-6.67418 6.1975,-0.95345 7.9457,0.3182 7.9457,0.3182 0,0 -4.6084,-2.70171 -6.8331,-5.56204 -2.2247,-2.86033 0.4769,-6.35604 4.1318,-8.42183 3.6549,-2.0658 4.1316,-7.15118 4.2905,-5.24429 0.159,1.90689 -6.5153,12.71286 -6.5153,12.71286 0,0 10.4345,-4.37763 18.0176,-15.65589 0.9334,0.45643 2.8039,1.6136 3.276,3.73786 0.6356,2.86033 -0.3177,7.3097 -0.3177,7.3097 l 5.4026,-6.19756 9.5345,-0.6355 c 0,0 2.2246,1.90673 0.6355,3.17799 -1.5891,1.27125 -8.8985,8.58116 -6.0383,6.19754 2.8604,-2.3836 5.244,-1.27128 11.6003,-2.22472 6.3563,-0.95345 7.9452,-3.65507 7.9452,-3.65507 0,0 0.7944,7.30999 3.178,8.10452 2.3836,0.79454 13.9839,6.03823 13.9839,6.03823 0,0 -2.2247,-2.86002 -5.085,-3.97238 -2.3468,-0.91265 -3.6231,-3.17284 -4.6204,-8.60442 10.8395,8.68539 27.773,15.33276 27.773,15.33276 l -21.5741,-20.00107 -6.7879,0.87047 c -0.011,-0.0843 -0.023,-0.15128 -0.035,-0.23675 l -37.3433,-6.42982 -1.0701,0.49364 c 0.1716,-0.26574 0.3435,-0.53066 0.5116,-0.80379 z m 7.5934,63.90038 c 0.081,0.26765 0.1883,0.52881 0.3522,0.77469 0.5392,0.80873 0.2634,0.32401 -0.3522,-0.77469 z"
         sodipodi:nodetypes="cssssscsscscsssccscccssscscsccccccccccsc" />
      <ellipse
         style="fill:#c00f0f;fill-opacity:1;fill-rule:evenodd;stroke:none;stroke-width:2.21722;stroke-linejoin:bevel;stroke-dasharray:none;stroke-opacity:1;paint-order:stroke fill markers"
         id="ellipse622"
         cx="901.33386"
         cy="1619.6384"
         rx="9.4156828"
         ry="1.1950557"
         transform="matrix(0.9081399,-0.41866685,0.72493474,0.68881755,0,0)" />
      <path
         style="fill:#6b6b6b;fill-opacity:1;fill-rule:evenodd;stroke:none;stroke-width:6.60966;stroke-linejoin:bevel;stroke-dasharray:none;stroke-opacity:1;paint-order:stroke fill markers"
         d="m 1844.5678,689.65119 c -7.2303,6.91247 -9.8522,9.85226 -9.8522,11.20296 0,1.35071 1.6685,3.49597 1.6685,3.49597 0,0 -0.7945,-0.79454 -0.6357,-2.0658 0.1589,-1.27126 2.0659,-4.05213 2.5425,-4.44941 0.4768,-0.39726 3.8933,-2.30415 3.8933,-2.30415 0,0 1.4302,-1.50962 1.6685,-2.0658 0.2384,-0.55617 0.3973,-1.43017 0.7946,-2.14525 0.3972,-0.71508 0.4767,-0.79454 0.4767,-0.79454 z"
         id="path623" />
      <path
         style="fill:#343434;fill-opacity:1;fill-rule:evenodd;stroke:none;stroke-width:6.60966;stroke-linejoin:bevel;stroke-dasharray:none;stroke-opacity:1;paint-order:stroke fill markers"
         d="m 1825.1811,681.70582 c -8.4221,10.6468 -12.0769,22.08812 -12.0769,22.08812 0,0 2.0658,-16.36746 2.8603,-17.79762 0.7945,-1.43017 2.7014,-6.35629 2.7014,-6.35629 z"
         id="path624" />
      <ellipse
         style="fill:#000000;fill-opacity:1;fill-rule:evenodd;stroke:none;stroke-width:3.13905;stroke-linejoin:bevel;stroke-dasharray:none;stroke-opacity:1;paint-order:stroke fill markers"
         id="ellipse624"
         cx="1887.2954"
         cy="738.03613"
         rx="6.4584961"
         ry="10.920804" />
      <ellipse
         style="fill:#000000;fill-opacity:1;fill-rule:evenodd;stroke:none;stroke-width:3.13905;stroke-linejoin:bevel;stroke-dasharray:none;stroke-opacity:1;paint-order:stroke fill markers"
         id="ellipse625"
         cx="1949.3206"
         cy="738.03613"
         rx="6.4584961"
         ry="10.920804" />
      <g
         id="g628"
         transform="matrix(0.86604503,0,0,0.86604503,1514.5172,530.26712)">
        <path
           style="opacity:1;fill:#a50d0d;fill-opacity:1;fill-rule:evenodd;stroke:none;stroke-width:7.63201;stroke-linejoin:bevel;stroke-dasharray:none;stroke-opacity:1;paint-order:stroke fill markers"
           d="M 349.27182,172.81949 C 410.06651,40.130894 557.11776,98.690721 561.53362,210.18587 Z"
           id="path625"
           sodipodi:nodetypes="ccc" />
        <path
           style="opacity:1;fill:#a50d0d;fill-opacity:1;fill-rule:evenodd;stroke:none;stroke-width:7.63201;stroke-linejoin:bevel;stroke-dasharray:none;stroke-opacity:1;paint-order:stroke fill markers"
           d="m 437.4312,186.42203 c 60.1835,52.11009 85.64288,79.70799 132.84403,65.3211 19.70909,-6.00732 34.71264,-33.34366 30.82571,-53.57799 -4.50131,-23.43263 -56.1468,-44.40366 -56.1468,-44.40366 0,0 7.33946,21.2844 9.54129,31.9266 2.20184,10.6422 3.30274,22.7523 3.30274,22.7523 z"
           id="path627"
           sodipodi:nodetypes="caacscc" />
        <path
           style="opacity:1;fill:#930c0c;fill-opacity:1;fill-rule:evenodd;stroke:none;stroke-width:7.63201;stroke-linejoin:bevel;stroke-dasharray:none;stroke-opacity:1;paint-order:stroke fill markers"
           d="m 352.64518,166.07279 92.63748,16.60728 c -1.59236,0 64.70391,57.91441 78.88457,62.79627 33.79409,11.63402 51.75398,-4.79113 73.17583,-20.7591 0,0 -4.15183,10.89853 -7.52519,13.7529 -3.37336,2.85438 -14.01237,15.56933 -30.61965,16.60728 -16.60729,1.03796 -31.65764,-1.29744 -39.18281,-4.93029 -7.52517,-3.63284 -32.95507,-21.01858 -32.95507,-21.01858 L 439.83341,188.64831 348.6231,172.81949 Z"
           id="path628"
           sodipodi:nodetypes="ccscssscccc" />
      </g>
      <g
         id="g631"
         transform="matrix(0.78965926,0.00256959,-0.00256959,0.78965926,1537.1058,551.92313)">
        <rect
           style="opacity:1;fill:#383238;fill-opacity:1;fill-rule:evenodd;stroke:none;stroke-width:3.43199;stroke-linecap:round;stroke-linejoin:bevel;stroke-dasharray:none;stroke-opacity:1;paint-order:stroke fill markers"
           id="rect628"
           width="21.284405"
           height="28.25688"
           x="675.96332"
           y="331.37616"
           ry="10.642202" />
        <path
           style="opacity:1;fill:#383238;fill-opacity:1;fill-rule:evenodd;stroke:none;stroke-width:3.43199;stroke-linecap:round;stroke-linejoin:bevel;stroke-dasharray:none;stroke-opacity:1;paint-order:stroke fill markers"
           d="m 573.2106,409.73271 c 11.67699,-1.03796 23.35398,-8.82263 27.50582,-13.75291 4.15182,-4.93029 5.18975,-20.7591 5.18975,-20.7591 l 8.04415,-0.25948 c 0,0 -2.57135,19.84828 -8.5631,27.24632 -6.31351,7.79533 -21.27809,13.49341 -26.20838,14.79084 -4.93028,1.29744 -6.74669,1.03796 -6.74669,1.03796 z"
           id="path629"
           sodipodi:nodetypes="csccascc" />
        <path
           id="path630"
           style="opacity:1;fill:#8e818d;fill-opacity:1;fill-rule:evenodd;stroke:none;stroke-width:3.43199;stroke-linecap:round;stroke-linejoin:bevel;stroke-dasharray:none;stroke-opacity:1;paint-order:stroke fill markers"
           d="m 521.27464,317.6142 c -12.19816,0 -22.01829,9.82013 -22.01829,22.0183 v 23.43061 c 0,30.39199 35.61493,16.60855 38.51591,19.82186 2.94737,3.26467 4.61324,45.56019 4.61324,45.56019 0,11.18165 9.00161,11.18795 20.18326,11.18795 11.18165,0 20.18378,-0.006 20.18378,-11.18795 0,0 -11.1403,-40.69298 0,-43.36376 41.15765,-9.86715 102.29763,-3.75793 102.29763,-22.01829 V 339.6325 c 0,-12.19817 -9.82012,-22.0183 -22.01829,-22.0183 z"
           sodipodi:nodetypes="ssssssssssss" />
        <path
           style="opacity:1;fill:#bcb4bc;fill-opacity:1;fill-rule:evenodd;stroke:none;stroke-width:3.43199;stroke-linecap:round;stroke-linejoin:bevel;stroke-dasharray:none;stroke-opacity:1;paint-order:stroke fill markers"
           d="m 499.77529,340.44921 184.75597,-2.33539 c 0,0 -0.25948,-6.48722 -2.85438,-9.6011 -2.59487,-3.11385 -6.48721,-8.56311 -9.34159,-9.34159 -2.85438,-0.77846 -5.96823,-1.29744 -5.96823,-1.29744 l -148.42754,-0.25947 c 0,0 -7.78468,2.59487 -9.6011,3.37333 -1.81642,0.77848 -7.26569,8.56313 -7.52517,10.37955 -0.25948,1.81642 -1.03796,9.08211 -1.03796,9.08211 z"
           id="path631" />
      </g>
      <path
         id="path632"
         style="fill:#020100;fill-rule:evenodd;stroke-width:1.81931;stroke-linejoin:bevel;paint-order:stroke fill markers"
         d="m 2008.3142,1042.9631 c 0,27.2563 -22.0825,20.1014 -49.3227,20.1014 -27.2402,0 -49.3228,7.1549 -49.3228,-20.1014 0,-8.9156 2.3628,-18.393 6.496,-27.1107 8.5025,-17.93354 24.497,-32.6522 42.8268,-32.6522 18.875,0 35.2736,15.60719 43.5654,34.2605 3.6748,8.267 5.7573,17.1323 5.7573,25.5024 z"
         sodipodi:nodetypes="sssssss" />
      <path
         style="fill:#d49666;fill-opacity:1;stroke:none;stroke-width:0.95265;stroke-miterlimit:2.4;paint-order:stroke fill markers"
         d="m 1854.5322,803.53749 c -14.6159,12.26449 -22.5055,29.53293 -29.4395,46.74362 0,0 22.3987,18.95331 35.5071,25.16965 23.6864,11.23266 39.3413,24.21419 75.8166,20.89979 1.7979,-0.44946 19.6879,7.19132 28.6771,3.1462 8.9892,-4.04512 8.7032,-32.13624 1.5119,-41.1254 -7.1913,-8.98916 -43.791,1.82069 -62.8576,-7.19132 -20.643,-9.75704 -46.1186,-49.70729 -49.2156,-47.64254 z"
         id="path633"
         sodipodi:nodetypes="ccasssac" />
    </g>
  </g>
</svg>
