<?xml version="1.0" encoding="UTF-8" standalone="no"?>
<!-- Created with Inkscape (http://www.inkscape.org/) -->

<svg
   width="210mm"
   height="297mm"
   viewBox="0 0 210 297"
   version="1.1"
   id="svg1"
   inkscape:export-filename="..\Desktop\tamandua.png"
   inkscape:export-xdpi="96"
   inkscape:export-ydpi="96"
   inkscape:version="1.3.2 (091e20e, 2023-11-25, custom)"
   sodipodi:docname="coelho.svg"
   xmlns:inkscape="http://www.inkscape.org/namespaces/inkscape"
   xmlns:sodipodi="http://sodipodi.sourceforge.net/DTD/sodipodi-0.dtd"
   xmlns="http://www.w3.org/2000/svg"
   xmlns:svg="http://www.w3.org/2000/svg">
  <sodipodi:namedview
     id="namedview1"
     pagecolor="#ffffff"
     bordercolor="#000000"
     borderopacity="0.25"
     inkscape:showpageshadow="2"
     inkscape:pageopacity="0.0"
     inkscape:pagecheckerboard="0"
     inkscape:deskcolor="#d1d1d1"
     inkscape:document-units="mm"
     inkscape:zoom="0.21025203"
     inkscape:cx="399.52052"
     inkscape:cy="596.90268"
     inkscape:window-width="1024"
     inkscape:window-height="705"
     inkscape:window-x="-8"
     inkscape:window-y="-8"
     inkscape:window-maximized="1"
     inkscape:current-layer="layer1" />
  <defs
     id="defs1" />
  <g
     inkscape:label="Camada 1"
     inkscape:groupmode="layer"
     id="layer1">
    <g
       id="g6610"
       transform="matrix(5.3895044,0,0,5.3895044,-4423.5715,-1570.9205)"
       style="stroke-width:0.911376">
      <path
         style="fill:#c3c7ca;fill-opacity:1;stroke:none;stroke-width:4.5286;stroke-linecap:round;stroke-linejoin:round;stroke-opacity:1"
         d="m 833.51545,318.65307 c -3.68235,12.35216 -6.83523,23.26795 -4.31416,23.55055 8.65415,0.97008 13.77228,0.15718 19.01889,0.29213 8.36324,0.21509 -0.82544,-15.49124 -2.20571,-23.63261 z"
         id="path6592"
         sodipodi:nodetypes="csscc" />
      <path
         id="path6593"
         style="fill:#d1d2d4;fill-opacity:1;stroke:none;stroke-width:4.5286;stroke-linecap:round;stroke-linejoin:round"
         d="m 849.06045,316.55239 c 0,3.94458 -4.2793,7.1423 -9.55808,7.1423 -5.27877,0 -9.55807,-3.19772 -9.55807,-7.1423 0,-3.94458 4.2793,-9.87318 9.55807,-9.87318 5.27878,0 9.55808,5.9286 9.55808,9.87318 z"
         sodipodi:nodetypes="sssss" />
      <path
         id="path6594"
         style="fill:#ced3d4;fill-opacity:1;stroke:none;stroke-width:1.14491;stroke-linecap:round;stroke-linejoin:round"
         d="m 828.24728,296.97914 c -1.23695,0.69473 -1.16138,2.2935 -0.97872,3.48678 0.67844,4.43212 7.34278,11.27028 7.34278,11.27028 0.77443,1.18867 0.83128,0.951 2.06823,0.25627 1.23695,-0.69474 1.33607,-1.0506 0.71822,-2.32769 0,0 -2.33957,-8.92445 -5.66373,-11.70693 -0.92569,-0.77484 -2.24984,-1.67345 -3.48678,-0.97871 z"
         sodipodi:nodetypes="sasssas" />
      <path
         id="path6595"
         style="fill:#ced3d4;fill-opacity:1;stroke:none;stroke-width:1.14491;stroke-linecap:round;stroke-linejoin:round"
         d="m 850.94664,296.97914 c 1.23694,0.69473 1.16138,2.2935 0.97872,3.48678 -0.67844,4.43212 -7.34278,11.27028 -7.34278,11.27028 -0.77444,1.18867 -0.83129,0.951 -2.06824,0.25627 -1.23694,-0.69474 -1.33607,-1.0506 -0.71822,-2.32769 0,0 2.33957,-8.92445 5.66373,-11.70693 0.92569,-0.77484 2.24985,-1.67345 3.48679,-0.97871 z"
         sodipodi:nodetypes="sasssas" />
      <g
         id="g6596"
         style="stroke-width:3.38982"
         transform="matrix(0.38928157,0,0,0.38928157,804.03502,281.62982)">
        <ellipse
           style="fill:#ed8a85;fill-opacity:1;stroke:none;stroke-width:11.6333;stroke-linecap:round;stroke-linejoin:round;stroke-opacity:1"
           id="ellipse6595"
           cx="77.745972"
           cy="88.430084"
           rx="4.1019349"
           ry="3.9111471" />
        <ellipse
           style="fill:#ed8a85;fill-opacity:1;stroke:none;stroke-width:11.6333;stroke-linecap:round;stroke-linejoin:round;stroke-opacity:1"
           id="ellipse6596"
           cx="104.26546"
           cy="88.430084"
           rx="4.1019349"
           ry="3.9111471" />
      </g>
      <g
         id="g6598"
         style="stroke-width:3.38982"
         transform="matrix(0.38928157,0,0,0.38928157,804.03502,281.62982)">
        <ellipse
           style="fill:#333333;fill-opacity:1;stroke:none;stroke-width:11.6333;stroke-linecap:round;stroke-linejoin:round;stroke-opacity:1"
           id="ellipse6597"
           cx="84.518936"
           cy="76.315063"
           rx="2.2894521"
           ry="2.5756335" />
        <ellipse
           style="fill:#333333;fill-opacity:1;stroke:none;stroke-width:11.6333;stroke-linecap:round;stroke-linejoin:round;stroke-opacity:1"
           id="ellipse6598"
           cx="98.255646"
           cy="76.315063"
           rx="2.2894521"
           ry="2.5756335" />
      </g>
      <path
         id="path6600"
         style="fill:#d1d2d4;fill-opacity:1;stroke-width:1.36182;stroke-linecap:round;stroke-linejoin:round"
         d="m 848.67439,338.55815 c 0,5.27878 -4.56865,3.99128 -8.45522,3.99128 -3.88657,0 -7.82502,1.2875 -7.82502,-3.99128 0,-5.27879 4.20103,-11.65876 8.0876,-11.65876 3.88658,0 8.19264,6.37997 8.19264,11.65876 z"
         sodipodi:nodetypes="sssss" />
      <path
         style="fill:#fbacaf;fill-opacity:1;stroke:none;stroke-width:1.36182;stroke-linecap:round;stroke-linejoin:round;stroke-dasharray:none;stroke-opacity:1"
         d="m 843.05508,307.4944 c 2.4683,1.78557 2.52081,1.83809 2.52081,1.83809 0,0 5.38371,-5.20179 4.88408,-8.40271 -0.11278,-0.72251 -0.9009,-1.54815 -1.62803,-1.47047 -3.28006,0.35043 -5.77686,8.03509 -5.77686,8.03509 z"
         id="path6602"
         sodipodi:nodetypes="ccaac" />
      <path
         style="fill:#fbacaf;fill-opacity:1;stroke:none;stroke-width:1.36182;stroke-linecap:round;stroke-linejoin:round;stroke-dasharray:none;stroke-opacity:1"
         d="m 835.73546,307.4944 c -2.4683,1.78557 -2.52082,1.83809 -2.52082,1.83809 0,0 -5.3837,-5.20179 -4.88407,-8.40271 0.11278,-0.72251 0.9009,-1.54815 1.62803,-1.47047 3.28006,0.35043 5.77686,8.03509 5.77686,8.03509 z"
         id="path6603"
         sodipodi:nodetypes="ccaac" />
      <g
         id="g6609"
         transform="matrix(0.65759335,0,0,0.65759335,287.54069,108.13164)"
         style="stroke-width:1.38593">
        <path
           style="fill:#333333;fill-opacity:1;stroke:none;stroke-width:6.65625;stroke-linecap:round;stroke-miterlimit:4;stroke-dasharray:none;stroke-opacity:1;paint-order:normal"
           d="m 837.6623,314.06723 c -0.15606,0.17753 -0.58025,0.33171 -0.17576,0.96676 0.61388,0.96379 1.30608,1.64053 1.7382,1.64053 0.48923,0 1.31009,-0.85725 1.91398,-1.64053 0.25512,-0.3309 0.12707,-0.70275 -0.0977,-0.90816 -0.96778,-0.65961 -3.03776,-0.44649 -3.37875,-0.0586 z"
           id="path6609"
           sodipodi:nodetypes="ssssas" />
      </g>
      <path
         style="display:inline;fill:#abb1b4;fill-opacity:1;fill-rule:evenodd;stroke-width:2.22735;stroke-linecap:round;stroke-linejoin:bevel;paint-order:stroke fill markers"
         d="m 60.878478,277.2753 c 7.401437,1.86717 29.835724,2.45574 38.390607,-0.43981 0,-5.20373 -9.100849,-25.60213 -19.915078,-25.59385 -10.718101,0.008 -19.904589,19.6029 -18.475529,26.03371 z"
         id="path45"
         sodipodi:nodetypes="ccsc"
         transform="matrix(0.19850792,0,0,0.19850792,819.07974,287.86336)" />
      <path
         style="display:inline;fill:#abb1b4;fill-opacity:1;fill-rule:evenodd;stroke-width:2.22735;stroke-linecap:round;stroke-linejoin:bevel;paint-order:stroke fill markers"
         d="m 105.02786,277.2753 c 7.40143,1.86717 29.83569,2.45574 38.39063,-0.43981 0,-5.20373 -9.10086,-25.60213 -19.91513,-25.59385 -10.71803,0.008 -19.90452,19.6029 -18.4755,26.03371 z"
         id="path46"
         sodipodi:nodetypes="ccsc"
         transform="matrix(0.19850792,0,0,0.19850792,819.07974,287.86336)" />
      <path
         style="display:inline;fill:none;fill-opacity:1;stroke:#333333;stroke-width:2.185;stroke-linecap:round;stroke-linejoin:round;stroke-dasharray:none;stroke-opacity:1"
         d="m 102.81883,138.22967 -0.42845,20.76678"
         id="path7-9-2"
         sodipodi:nodetypes="cc"
         transform="matrix(0.19850792,0,0,0.19850792,819.07974,287.86336)" />
      <path
         style="display:inline;fill:none;fill-opacity:1;stroke:#333333;stroke-width:2.185;stroke-linecap:round;stroke-linejoin:round;stroke-dasharray:none;stroke-opacity:1"
         d="m 94.992301,153.75489 c 0,0 4.304499,6.77285 7.712029,6.71237 2.99722,-0.0532 6.56955,-6.1411 6.56955,-6.1411"
         id="path14-0-1"
         sodipodi:nodetypes="cac"
         transform="matrix(0.19850792,0,0,0.19850792,819.07974,287.86336)" />
    </g>
  </g>
</svg>
