<?xml version="1.0" encoding="UTF-8" standalone="no"?>
<!-- Created with Inkscape (http://www.inkscape.org/) -->

<svg
   width="210mm"
   height="297mm"
   viewBox="0 0 210 297"
   version="1.1"
   id="svg1"
   inkscape:export-filename="..\Desktop\passarinhoazul.svg"
   inkscape:export-xdpi="96"
   inkscape:export-ydpi="96"
   inkscape:version="1.3.2 (091e20e, 2023-11-25, custom)"
   sodipodi:docname="passarinhoamarelo.svg"
   xmlns:inkscape="http://www.inkscape.org/namespaces/inkscape"
   xmlns:sodipodi="http://sodipodi.sourceforge.net/DTD/sodipodi-0.dtd"
   xmlns="http://www.w3.org/2000/svg"
   xmlns:svg="http://www.w3.org/2000/svg">
  <sodipodi:namedview
     id="namedview1"
     pagecolor="#ffffff"
     bordercolor="#000000"
     borderopacity="0.25"
     inkscape:showpageshadow="2"
     inkscape:pageopacity="0.0"
     inkscape:pagecheckerboard="0"
     inkscape:deskcolor="#d1d1d1"
     inkscape:document-units="mm"
     inkscape:zoom="0.21025203"
     inkscape:cx="399.52052"
     inkscape:cy="596.90268"
     inkscape:window-width="1024"
     inkscape:window-height="705"
     inkscape:window-x="-8"
     inkscape:window-y="-8"
     inkscape:window-maximized="1"
     inkscape:current-layer="layer1" />
  <defs
     id="defs1" />
  <g
     inkscape:label="Camada 1"
     inkscape:groupmode="layer"
     id="layer1">
    <g
       id="g92"
       transform="matrix(1.3974366,0,0,1.3974366,-2598.1542,1754.2446)"
       inkscape:label="passarinho 2"
       style="display:inline">
      <path
         id="path1"
         style="fill:#feb228;fill-opacity:1;stroke-width:0.0657698;stroke-linecap:round;stroke-linejoin:round"
         d="m 1923.176,-1121.304 c 1.596,0 2.8809,1.2849 2.8809,2.8809 v 2.9449 c -1.3581,3.6784 -1.3302,3.6095 -2.9262,3.6095 -1.596,0 -1.5681,-0.022 -2.8356,-3.6095 v -2.9449 c 0,-1.596 1.2849,-2.8809 2.8809,-2.8809 z"
         sodipodi:nodetypes="sscscss" />
      <path
         id="path2"
         style="fill:#ffd644;fill-opacity:1;stroke-width:0.0657698;stroke-linecap:round;stroke-linejoin:round"
         d="m 1942.8702,-1121.7302 c 1.596,0 2.8809,1.2849 2.8809,2.8809 v 2.9449 c -1.3581,3.6784 -1.3302,3.6095 -2.9262,3.6095 -1.596,0 -1.5681,-0.022 -2.8356,-3.6095 v -2.9449 c 0,-1.596 1.2849,-2.8809 2.8809,-2.8809 z"
         sodipodi:nodetypes="sscscss" />
      <g
         id="g20"
         transform="matrix(0.13423185,0,0,0.13423185,1507.4288,-918.62192)">
        <g
           id="g10"
           transform="translate(923.08157,414.98048)"
           style="fill:none;fill-opacity:1;stroke:#f38d39;stroke-opacity:1">
          <path
             style="fill:none;fill-opacity:1;stroke:#f38d39;stroke-width:5.108;stroke-linecap:round;stroke-linejoin:round;stroke-dasharray:none;stroke-opacity:1;paint-order:stroke fill markers"
             d="m 2171.7728,-1856.4751 v 15.9367 l -4.3748,14.3744"
             id="path8" />
          <path
             style="fill:none;fill-opacity:1;stroke:#f38d39;stroke-width:5.10799;stroke-linecap:round;stroke-linejoin:round;stroke-dasharray:none;stroke-opacity:1;paint-order:stroke fill markers"
             d="m 2154.8986,-1833.6637 17.4992,-11.2495 10.6245,14.6868"
             id="path10" />
        </g>
        <g
           id="g17"
           transform="translate(1074.3245,414.98048)"
           style="fill:none;fill-opacity:1;stroke:#f38d39;stroke-opacity:1">
          <path
             style="fill:none;fill-opacity:1;stroke:#f38d39;stroke-width:5.108;stroke-linecap:round;stroke-linejoin:round;stroke-dasharray:none;stroke-opacity:1;paint-order:stroke fill markers"
             d="m 2171.7728,-1856.4751 v 15.9367 l -4.3748,14.3744"
             id="path11" />
          <path
             style="fill:none;fill-opacity:1;stroke:#f38d39;stroke-width:5.10799;stroke-linecap:round;stroke-linejoin:round;stroke-dasharray:none;stroke-opacity:1;paint-order:stroke fill markers"
             d="m 2154.8986,-1833.6637 17.4992,-11.2495 10.6245,14.6868"
             id="path13" />
        </g>
      </g>
      <path
         id="path27"
         style="fill:#01aecc;fill-opacity:1;stroke-width:0.121883;stroke-linecap:round;stroke-linejoin:round"
         d="m 1927.8903,-1178.1805 c -0.301,10.9651 88.7437,38.1609 47.9704,48.5929 -10.3187,2.6401 -45.4326,17.0479 -64.5808,6.9429 -19.142,-10.1017 -30.7041,-45.2601 -30.7041,-57.2137 0,-11.9536 9.4929,-22.628 19.6305,-23.3217 12.4047,-0.8488 28.0119,13.0505 27.684,24.9996 z"
         sodipodi:nodetypes="ssasas" />
      <path
         style="fill:#00404a;fill-opacity:1;stroke-width:0.121883;stroke-linecap:round;stroke-linejoin:round"
         d="m 1886.7634,-1154.769 c 24.2545,-17.4178 27.1173,-21.3049 36.9646,-35.3816 0,0 2.3167,3.7487 3.3234,6.9366 1.0067,3.1879 0.8389,7.718 0.8389,7.718 -10.9967,14.1206 -20.722,25.2176 -34.9183,33.124 -2.2658,-3.8151 -4.3889,-7.4666 -6.2086,-12.397 z"
         id="path32"
         sodipodi:nodetypes="ccsccc" />
      <g
         id="g68"
         transform="matrix(0.13423185,0,0,0.13423185,1505.751,-915.60184)">
        <path
           style="fill:#ffd64f;fill-opacity:1;stroke-width:0.908;stroke-linecap:round;stroke-linejoin:round"
           d="m 3477.3364,-1734.9184 107.4949,-234.9889 114.9946,122.4943 -194.9908,147.493 z"
           id="path33" />
        <path
           style="fill:#ffb32a;fill-opacity:1;stroke-width:0.908;stroke-linecap:round;stroke-linejoin:round"
           d="m 3556.1064,-1911.3395 97.3927,102.2224 47.8789,-39.3623 -117.5064,-122.5952 z"
           id="path68"
           sodipodi:nodetypes="ccccc" />
      </g>
      <g
         id="g93">
        <path
           style="fill:#00b1cb;fill-opacity:1;stroke-width:0.110548;stroke-linecap:round;stroke-linejoin:round"
           d="m 1924.3994,-1176.1024 c -17.1063,4.8475 -17.537,36.8137 20.3921,45.6539 18.3095,4.2674 53.5672,-3.3479 53.5672,-3.3479 -23.4165,-10.3187 -46.4575,-50.0993 -73.9593,-42.306 z"
           id="path69"
           sodipodi:nodetypes="sscs" />
        <path
           style="fill:#00424b;fill-opacity:1;stroke-width:0.110548;stroke-linecap:round;stroke-linejoin:round"
           d="m 1913.375,-1161.9439 c 0,0 14.1628,17.2403 23.9964,21.629 18.578,8.2914 55.8523,6.7046 60.6904,6.4564 -17.1228,3.6825 -42.5942,8.2168 -60.6904,1.2913 -14.347,-5.6755 -24.6629,-14.0081 -23.9964,-29.3767 z"
           id="path70"
           sodipodi:nodetypes="cacsc" />
      </g>
      <g
         id="g76"
         transform="matrix(0.13423185,0,0,0.13423185,1508.4966,-922.71499)">
        <ellipse
           style="fill:#ffffff;fill-opacity:1;stroke-width:0.778285;stroke-linecap:round;stroke-linejoin:round"
           id="ellipse75"
           cx="2897.542"
           cy="-1948.6582"
           rx="28.927208"
           ry="29.998587" />
        <ellipse
           style="fill:#880807;fill-opacity:1;stroke-width:0.492433;stroke-linecap:round;stroke-linejoin:round"
           id="ellipse76"
           cx="2897.542"
           cy="-1945.9268"
           rx="18.302708"
           ry="18.980587" />
      </g>
      <g
         id="g91">
        <path
           style="fill:#f7e59b;fill-opacity:1;stroke-width:0.192247;stroke-linecap:round;stroke-linejoin:round"
           d="m 1880.882,-1178.8082 -17.4333,7.8709 18.4554,1.0844 z"
           id="path88" />
        <path
           style="fill:#ffb32a;fill-opacity:1;stroke-width:0.121883;stroke-linecap:round;stroke-linejoin:round"
           d="m 1863.6298,-1171.29 17.7849,-2.9362 -0.5872,-4.6979 z"
           id="path89" />
      </g>
    </g>
  </g>
</svg>
