<?xml version="1.0" encoding="UTF-8" standalone="no"?>
<!-- Created with Inkscape (http://www.inkscape.org/) -->

<svg
   width="210mm"
   height="297mm"
   viewBox="0 0 210 297"
   version="1.1"
   id="svg1"
   inkscape:export-filename="..\Desktop\coelho.png"
   inkscape:export-xdpi="96"
   inkscape:export-ydpi="96"
   inkscape:version="1.3.2 (091e20e, 2023-11-25, custom)"
   sodipodi:docname="passarinhoamarelo.svg"
   xmlns:inkscape="http://www.inkscape.org/namespaces/inkscape"
   xmlns:sodipodi="http://sodipodi.sourceforge.net/DTD/sodipodi-0.dtd"
   xmlns="http://www.w3.org/2000/svg"
   xmlns:svg="http://www.w3.org/2000/svg">
  <sodipodi:namedview
     id="namedview1"
     pagecolor="#ffffff"
     bordercolor="#000000"
     borderopacity="0.25"
     inkscape:showpageshadow="2"
     inkscape:pageopacity="0.0"
     inkscape:pagecheckerboard="0"
     inkscape:deskcolor="#d1d1d1"
     inkscape:document-units="mm"
     inkscape:zoom="0.21025203"
     inkscape:cx="399.52052"
     inkscape:cy="596.90268"
     inkscape:window-width="1024"
     inkscape:window-height="705"
     inkscape:window-x="-8"
     inkscape:window-y="-8"
     inkscape:window-maximized="1"
     inkscape:current-layer="layer1" />
  <defs
     id="defs1" />
  <g
     inkscape:label="Camada 1"
     inkscape:groupmode="layer"
     id="layer1">
    <g
       id="g10788"
       transform="matrix(0.1875805,0,0,0.1875805,-370.73736,218.71706)"
       style="display:inline"
       inkscape:label="passarinho">
      <path
         id="rect10781"
         style="fill:#feb228;fill-opacity:1;stroke-width:0.489972;stroke-linecap:round;stroke-linejoin:round"
         d="m 2467.2618,-140.00496 c 11.8898,0 21.4619,9.5722 21.4619,21.4622 v 21.939098 c -10.1172,27.4032 -9.9093,26.8899 -21.7992,26.8899 -11.8901,0 -11.6821,-0.1612 -21.1249,-26.8899 v -21.939098 c 0,-11.89 9.5721,-21.4622 21.4622,-21.4622 z"
         sodipodi:nodetypes="sscscss" />
      <path
         id="path10781"
         style="fill:#ffd644;fill-opacity:1;stroke-width:0.489972;stroke-linecap:round;stroke-linejoin:round"
         d="m 2613.9796,-143.18016 c 11.8898,0 21.4619,9.5722 21.4619,21.4622 v 21.939098 c -10.1172,27.4032 -9.9093,26.8899 -21.7992,26.8899 -11.8901,0 -11.6821,-0.1612 -21.1249,-26.8899 v -21.939098 c 0,-11.89 9.5721,-21.4622 21.4622,-21.4622 z"
         sodipodi:nodetypes="sscscss" />
      <g
         id="g10787">
        <g
           id="g10786"
           transform="translate(-629.97036,1369.9355)">
          <g
             id="g10783"
             transform="translate(923.08157,414.98048)"
             style="fill:none;fill-opacity:1;stroke:#f38d39;stroke-opacity:1">
            <path
               style="fill:none;fill-opacity:1;stroke:#f38d39;stroke-width:5.108;stroke-linecap:round;stroke-linejoin:round;stroke-dasharray:none;stroke-opacity:1;paint-order:stroke fill markers"
               d="m 2171.7728,-1856.4751 v 15.9367 l -4.3748,14.3744"
               id="path10782" />
            <path
               style="fill:none;fill-opacity:1;stroke:#f38d39;stroke-width:5.10799;stroke-linecap:round;stroke-linejoin:round;stroke-dasharray:none;stroke-opacity:1;paint-order:stroke fill markers"
               d="m 2154.8986,-1833.6637 17.4992,-11.2495 10.6245,14.6868"
               id="path10783" />
          </g>
          <g
             id="g10785"
             transform="translate(1074.3245,414.98048)"
             style="fill:none;fill-opacity:1;stroke:#f38d39;stroke-opacity:1">
            <path
               style="fill:none;fill-opacity:1;stroke:#f38d39;stroke-width:5.108;stroke-linecap:round;stroke-linejoin:round;stroke-dasharray:none;stroke-opacity:1;paint-order:stroke fill markers"
               d="m 2171.7728,-1856.4751 v 15.9367 l -4.3748,14.3744"
               id="path10784" />
            <path
               style="fill:none;fill-opacity:1;stroke:#f38d39;stroke-width:5.10799;stroke-linecap:round;stroke-linejoin:round;stroke-dasharray:none;stroke-opacity:1;paint-order:stroke fill markers"
               d="m 2154.8986,-1833.6637 17.4992,-11.2495 10.6245,14.6868"
               id="path10785" />
          </g>
        </g>
        <g
           id="g10781"
           transform="translate(-629.97036,1369.9355)">
          <path
             id="path10772"
             style="fill:#ffd64f;fill-opacity:1;stroke-width:0.908;stroke-linecap:round;stroke-linejoin:round"
             d="m 3132.3526,-1933.6589 c -2.242,81.6882 661.1227,284.291 357.3701,362.0075 -76.8722,19.6681 -338.4638,127.0031 -481.1143,51.723 -142.604,-75.2555 -228.7392,-337.1783 -228.7392,-426.23 0,-89.0518 70.7205,-168.5742 146.2431,-173.7419 92.4127,-6.3234 208.6835,97.2232 206.2403,186.2414 z"
             sodipodi:nodetypes="ssasas" />
          <path
             style="fill:#ffb32a;fill-opacity:1;stroke-width:0.908;stroke-linecap:round;stroke-linejoin:round"
             d="m 2825.9655,-1759.2478 c 180.6909,-129.759 202.0187,-158.717 275.3791,-263.5859 0,0 17.2586,27.9276 24.7582,51.6765 7.4997,23.7489 6.2498,57.4973 6.2498,57.4973 -81.9227,105.1955 -154.3749,187.8665 -260.1338,246.7676 -16.8797,-28.4222 -32.6968,-55.6252 -46.2533,-92.3555 z"
             id="path10775"
             sodipodi:nodetypes="ccsccc" />
        </g>
        <g
           id="g10777"
           transform="translate(-642.46977,1392.4345)">
          <path
             style="fill:#ffd64f;fill-opacity:1;stroke-width:0.908;stroke-linecap:round;stroke-linejoin:round"
             d="m 3477.3364,-1734.9184 107.4949,-234.9889 114.9946,122.4943 -194.9908,147.493 z"
             id="path10776" />
          <path
             style="fill:#ffb32a;fill-opacity:1;stroke-width:0.908;stroke-linecap:round;stroke-linejoin:round"
             d="m 3556.1064,-1911.3395 97.3927,102.2224 47.8789,-39.3623 -117.5064,-122.5952 z"
             id="path10777"
             sodipodi:nodetypes="ccccc" />
        </g>
        <g
           id="g10778"
           transform="matrix(0.90700838,0,0,0.90700838,-319.34591,1188.5977)">
          <path
             style="fill:#ff5515;fill-opacity:1;stroke-width:0.908;stroke-linecap:round;stroke-linejoin:round"
             d="m 3082.3549,-1914.9099 c -140.5038,39.8154 -144.0419,302.3727 167.4922,374.9824 150.3874,35.051 439.9791,-27.4987 439.9791,-27.4987 -192.3336,-84.7529 -381.5824,-411.4952 -607.4713,-347.4837 z"
             id="path10773"
             sodipodi:nodetypes="sscs" />
          <path
             style="fill:#d9410d;fill-opacity:1;stroke-width:0.908;stroke-linecap:round;stroke-linejoin:round"
             d="m 2991.8047,-1798.6182 c 0,0 116.3276,141.6051 197.0967,177.6522 152.5927,68.1018 458.7484,55.069 498.4869,53.0305 -140.6405,30.2464 -349.8518,67.4891 -498.4869,10.6061 -117.8404,-46.6169 -202.5707,-115.0575 -197.0967,-241.2888 z"
             id="path10774"
             sodipodi:nodetypes="cacsc" />
        </g>
        <g
           id="g10779"
           transform="translate(-622.01578,1339.443)">
          <ellipse
             style="fill:#ffffff;fill-opacity:1;stroke-width:0.778285;stroke-linecap:round;stroke-linejoin:round"
             id="path10778"
             cx="2897.542"
             cy="-1948.6582"
             rx="28.927208"
             ry="29.998587" />
          <ellipse
             style="fill:#880807;fill-opacity:1;stroke-width:0.492433;stroke-linecap:round;stroke-linejoin:round"
             id="ellipse10778"
             cx="2897.542"
             cy="-1945.9268"
             rx="18.302708"
             ry="18.980587" />
        </g>
        <g
           id="g10780"
           transform="translate(-629.97036,1369.9355)">
          <path
             style="fill:#880807;fill-opacity:1;stroke-width:1.4322;stroke-linecap:round;stroke-linejoin:round"
             d="m 2782.1502,-1938.3347 -129.8745,58.6366 137.489,8.0787 z"
             id="path10779" />
          <path
             style="fill:#5f0a0a;fill-opacity:1;stroke-width:0.908;stroke-linecap:round;stroke-linejoin:round"
             d="m 2653.625,-1881.1615 132.4938,-21.8739 -4.3746,-34.9984 z"
             id="path10780" />
        </g>
      </g>
    </g>
  </g>
</svg>
