<?xml version="1.0" encoding="UTF-8" standalone="no"?>
<!-- Created with Inkscape (http://www.inkscape.org/) -->

<svg
   width="210mm"
   height="297mm"
   viewBox="0 0 210 297"
   version="1.1"
   id="svg1"
   inkscape:export-filename="..\Desktop\passarinhoazul.svg"
   inkscape:export-xdpi="96"
   inkscape:export-ydpi="96"
   inkscape:version="1.3.2 (091e20e, 2023-11-25, custom)"
   sodipodi:docname="passarinhoamarelo.svg"
   xmlns:inkscape="http://www.inkscape.org/namespaces/inkscape"
   xmlns:sodipodi="http://sodipodi.sourceforge.net/DTD/sodipodi-0.dtd"
   xmlns="http://www.w3.org/2000/svg"
   xmlns:svg="http://www.w3.org/2000/svg">
  <sodipodi:namedview
     id="namedview1"
     pagecolor="#ffffff"
     bordercolor="#000000"
     borderopacity="0.25"
     inkscape:showpageshadow="2"
     inkscape:pageopacity="0.0"
     inkscape:pagecheckerboard="0"
     inkscape:deskcolor="#d1d1d1"
     inkscape:document-units="mm"
     inkscape:zoom="0.21025203"
     inkscape:cx="399.52052"
     inkscape:cy="596.90268"
     inkscape:window-width="1024"
     inkscape:window-height="705"
     inkscape:window-x="-8"
     inkscape:window-y="-8"
     inkscape:window-maximized="1"
     inkscape:current-layer="layer1" />
  <defs
     id="defs1" />
  <g
     inkscape:label="Camada 1"
     inkscape:groupmode="layer"
     id="layer1">
    <g
       id="g589"
       transform="matrix(1.4105416,0,0,1.4105416,-1951.5595,-662.56608)"
       style="display:inline"
       inkscape:label="tatu">
      <path
         style="fill:#844a23;fill-opacity:1;stroke:none;stroke-width:1.27391;stroke-linecap:round;stroke-dasharray:none;stroke-opacity:1;paint-order:normal"
         d="m 1416.5259,607.98496 c 5.5359,9.24935 22.2958,-1.12139 39.7288,1.83638 13.0067,2.20679 19.8771,5.56807 29.7815,-2.20106 3.2253,-2.52994 14.9302,-36.98788 14.9302,-36.98788 -1.1406,-12.69451 -36.7787,-33.54948 -71.3195,-7.9202 -14.7891,10.97353 -20.9578,32.17907 -13.121,45.27276 z"
         id="path232"
         sodipodi:nodetypes="ssscss" />
      <path
         style="fill:#966341;fill-opacity:1;stroke:none;stroke-width:1.27391;stroke-linecap:round;stroke-dasharray:none;stroke-opacity:1;paint-order:normal"
         d="m 1476.3022,604.9992 c 4.2447,5.03426 6.1769,12.9823 -3.9063,11.59929 -10.1757,-1.39553 -10.3858,-3.33326 -10.3396,-5.51668 0.078,-3.67839 0.848,-6.91566 0.848,-6.91566 z"
         id="path221"
         sodipodi:nodetypes="csscc" />
      <path
         style="fill:#cd956e;fill-opacity:1;stroke:none;stroke-width:1.27391;stroke-linecap:round;stroke-dasharray:none;stroke-opacity:1;paint-order:normal"
         d="m 1409.2458,595.07631 c -7.3692,11.5194 -24.9108,9.6235 -23.2823,11.1328 0.953,0.88317 15.5817,7.25827 28.533,1.16618 2.3994,-1.12862 4.8205,-2.14336 4.8205,-2.14336 z"
         id="path223"
         sodipodi:nodetypes="csscc" />
      <path
         style="fill:#452814;fill-opacity:1;stroke:none;stroke-width:1.27391;stroke-linecap:round;stroke-dasharray:none;stroke-opacity:1;paint-order:normal"
         d="m 1467.2205,607.58646 c 4.2447,5.03426 6.1769,12.98231 -3.9063,11.59929 -10.1757,-1.39552 -10.3857,-3.33325 -10.3396,-5.51668 0.078,-3.67838 0.848,-6.91565 0.848,-6.91565 z"
         id="path220"
         sodipodi:nodetypes="csscc" />
      <path
         style="fill:#4a2a14;fill-opacity:1;stroke:none;stroke-width:1.27391;stroke-linecap:round;stroke-dasharray:none;stroke-opacity:1;paint-order:normal"
         d="m 1410.0233,603.97701 c 5.5359,9.24934 22.2958,-1.1214 39.7288,1.83638 13.0068,2.20679 19.8771,5.56807 29.7815,-2.20106 3.2253,-2.52994 14.9302,-36.98788 14.9302,-36.98788 -1.1406,-12.69452 -36.7787,-33.54949 -71.3195,-7.9202 -14.7891,10.97352 -20.9578,32.17907 -13.121,45.27276 z"
         id="path217"
         sodipodi:nodetypes="ssscss" />
      <path
         style="fill:#966341;fill-opacity:1;stroke:none;stroke-width:1.27391;stroke-linecap:round;stroke-dasharray:none;stroke-opacity:1;paint-order:normal"
         d="m 1437.5426,604.14142 c 5.2833,3.93037 8.9817,11.22606 -1.1506,12.18518 -10.2253,0.96809 -10.8727,-0.87029 -11.3271,-3.00642 -0.7655,-3.59869 -0.7557,-6.92635 -0.7557,-6.92635 z"
         id="path219"
         sodipodi:nodetypes="csscc" />
      <path
         style="fill:#452814;fill-opacity:1;stroke:none;stroke-width:1.27391;stroke-linecap:round;stroke-dasharray:none;stroke-opacity:1;paint-order:normal"
         d="m 1431.3794,605.53325 c 5.2833,3.93037 8.9817,11.22605 -1.1506,12.18517 -10.2253,0.96809 -10.8727,-0.87029 -11.3272,-3.00642 -0.7654,-3.59868 -0.6724,-7.86207 -0.6724,-7.86207 z"
         id="path218"
         sodipodi:nodetypes="csscc" />
      <g
         id="g228"
         style="fill:#6a3c1d;fill-opacity:1"
         transform="matrix(1.539927,0.1369776,-0.1369776,1.539927,-2644.1887,828.86184)">
        <g
           id="g226"
           style="fill:#6a3c1d;fill-opacity:1"
           transform="matrix(0.90202943,-0.22203192,0.22203192,0.90202943,345.3822,566.26346)">
          <path
             id="path225"
             style="fill:#6a3c1d;fill-opacity:1;stroke-width:0.68158;stroke-linecap:round"
             transform="rotate(-9.7893497)"
             d="m 2714.0775,34.803711 c 0,11.001801 1.9327,19.639866 -6.2429,19.640945 -8.1757,0.0011 -23.3642,-8.635315 -23.3658,-19.637164 0,-11.001859 6.6245,-19.922601 14.8002,-19.925686 8.1756,-0.0031 14.8054,8.912551 14.8085,19.914342"
             sodipodi:nodetypes="csssc" />
          <path
             id="path226"
             style="fill:#6a3c1d;fill-opacity:1;stroke-width:0.562658;stroke-linecap:round"
             d="m 2662.6853,-427.84167 c -1.0546,4.71626 -1.8243,8.15985 -9.4783,5.40645 -4.7043,-1.69229 -5.2488,-6.63177 -5.7182,-11.44168 -0.865,-8.86322 3.3899,-5.57067 8.2691,-4.48096 4.879,1.09098 7.9809,5.7963 6.9282,10.51295"
             sodipodi:nodetypes="csssc" />
        </g>
      </g>
      <path
         style="fill:#030303;fill-opacity:1;stroke:none;stroke-width:0.680937;stroke-linecap:round;stroke-dasharray:none;stroke-opacity:1;paint-order:normal"
         id="path229"
         sodipodi:type="arc"
         sodipodi:cx="1544.5768"
         sodipodi:cy="426.65027"
         sodipodi:rx="2.888562"
         sodipodi:ry="4.9518209"
         sodipodi:start="0"
         sodipodi:end="6.2828057"
         sodipodi:open="true"
         sodipodi:arc-type="arc"
         d="m 1547.4653,426.65027 a 2.888562,4.9518209 0 0 1 -2.8882,4.95182 2.888562,4.9518209 0 0 1 -2.8889,-4.95088 2.888562,4.9518209 0 0 1 2.8878,-4.95276 2.888562,4.9518209 0 0 1 2.8893,4.94994"
         transform="rotate(5.0831222)" />
      <g
         id="g588"
         style="fill:#4a2a14;fill-opacity:1">
        <path
           style="fill:#4a2a14;fill-opacity:1;stroke:none;stroke-width:1.27391;stroke-linecap:round;stroke-dasharray:none;stroke-opacity:1;paint-order:normal"
           d="m 1525.0572,564.83858 c -4.366,4.09803 -11.7981,11.31836 -15.4229,2.99326 -3.6245,-8.32512 -3.5277,-14.8642 -9.0188,-15.83762 -5.4911,-0.97343 -3.1921,0.44359 -8.4642,-0.26791 -5.2716,-0.7114 -9.939,-5.49168 -9.939,-5.49168 3.7083,-8.23785 9.5867,-10.20731 16.0086,-10.94382 5.1644,-0.59231 11.4205,2.47088 14.5323,5.65775 6.218,6.79232 8.5817,15.72786 12.304,23.89002 z"
           id="path230"
           sodipodi:nodetypes="cssscasc" />
        <g
           id="g232"
           transform="matrix(-1.3285757,0.79058491,0.79058491,1.3285757,5385.8993,-860.59624)"
           style="fill:#4a2a14;fill-opacity:1">
          <path
             style="fill:#4a2a14;fill-opacity:1;stroke:none;stroke-width:0.824;stroke-linecap:round;stroke-dasharray:none;stroke-opacity:1;paint-order:normal"
             d="m 2619.7074,-499.59164 c -3.7564,-2.76199 -2.2097,-0.44191 -4.0878,-3.42487 -1.8782,-2.98297 -2.3201,-4.19825 -2.3201,-5.30307 0,-1.10479 -0.6629,-1.6572 2.2096,-1.32575 2.8725,0.33144 5.524,0 6.7393,1.32577 1.2153,1.32575 3.6458,5.30305 3.6458,5.30305"
             id="path231"
             sodipodi:nodetypes="cssssc" />
        </g>
      </g>
      <path
         style="fill:none;fill-opacity:1;stroke:#030303;stroke-width:0.964708;stroke-linecap:round;stroke-dasharray:none;stroke-opacity:1;paint-order:normal"
         d="m 1526.5773,583.04944 c -12.34,-0.0688 -13.3492,-2.2163 -13.3492,-2.2163"
         id="path233"
         sodipodi:nodetypes="cc" />
      <path
         style="fill:#74411f;fill-opacity:1;stroke:none;stroke-width:1.27391;stroke-linecap:round;stroke-dasharray:none;stroke-opacity:1;paint-order:normal"
         d="m 1429.4004,605.61441 c -12.5347,-36.43936 -12.7908,-40.87284 -9.2489,-44.46375 3.1098,-3.15292 5.9303,-4.01664 5.9303,-4.01664 0,0 -1.6767,0.53677 -2.0327,8.39307 -0.3558,7.85632 -0.5979,10.57842 1.8288,17.99632 2.4269,7.41795 4.2941,13.41427 5.0123,16.90772 0.7181,3.4934 2.4501,3.84504 1.1848,4.9925 -1.1191,1.01503 -2.6746,0.19078 -2.6746,0.19078 z"
         id="path222"
         sodipodi:nodetypes="cscssssc" />
      <path
         style="fill:#74411f;fill-opacity:1;stroke:none;stroke-width:1.27391;stroke-linecap:round;stroke-dasharray:none;stroke-opacity:1;paint-order:normal"
         d="m 1442.8142,605.17853 c -12.5347,-36.43936 -14.4517,-48.22262 -10.9098,-51.81353 3.1098,-3.15293 7.1155,-2.88236 7.1155,-2.88236 0,0 -1.9169,0.34392 -2.2729,8.20023 -0.3558,7.85632 -0.5979,10.57842 1.8288,17.99632 2.4268,7.41794 4.2941,13.41427 5.0123,16.90772 0.7181,3.4934 2.8085,8.90944 2.6572,10.61075 -0.1513,1.7013 -3.4311,0.98087 -3.4311,0.98087 z"
         id="path224"
         sodipodi:nodetypes="cscssssc" />
      <path
         style="fill:#74411f;fill-opacity:1;stroke:none;stroke-width:1.27391;stroke-linecap:round;stroke-dasharray:none;stroke-opacity:1;paint-order:normal"
         d="m 1448.3074,547.27904 c -3.7393,1.55364 -2.3618,3.15936 -3.8566,4.80127 -2.3981,2.63413 8.4407,54.68829 9.3842,54.50725 l 3.3875,0.47278 c 0,0 -10.8893,-49.15381 -9.5204,-52.97606 1.3688,-3.82219 5.1838,-6.22649 6.25,-6.6461 1.066,-0.4196 1.9772,-1.02447 1.9772,-1.02447 z"
         id="path228"
         sodipodi:nodetypes="csccsscc" />
      <path
         style="fill:#74411f;fill-opacity:1;stroke:none;stroke-width:1.27391;stroke-linecap:round;stroke-dasharray:none;stroke-opacity:1;paint-order:normal"
         d="m 1463.6192,547.90401 c -3.7393,1.55364 -2.3618,3.15936 -3.8566,4.80127 -2.3981,2.63413 8.4407,54.68829 9.3842,54.50725 l 3.3875,0.47278 c 0,0 -10.8893,-49.15381 -9.5204,-52.97606 1.3688,-3.82219 5.1838,-6.22649 6.25,-6.6461 1.066,-0.4196 1.9772,-1.02447 1.9772,-1.02447 z"
         id="path588"
         sodipodi:nodetypes="csccsscc" />
    </g>
  </g>
</svg>
