<?xml version="1.0" encoding="UTF-8" standalone="no"?>
<!-- Created with Inkscape (http://www.inkscape.org/) -->

<svg
   width="210mm"
   height="297mm"
   viewBox="0 0 210 297"
   version="1.1"
   id="svg1"
   inkscape:export-filename="..\Desktop\coelho.png"
   inkscape:export-xdpi="96"
   inkscape:export-ydpi="96"
   inkscape:version="1.3.2 (091e20e, 2023-11-25, custom)"
   sodipodi:docname="tucano.svg"
   xmlns:inkscape="http://www.inkscape.org/namespaces/inkscape"
   xmlns:sodipodi="http://sodipodi.sourceforge.net/DTD/sodipodi-0.dtd"
   xmlns="http://www.w3.org/2000/svg"
   xmlns:svg="http://www.w3.org/2000/svg">
  <sodipodi:namedview
     id="namedview1"
     pagecolor="#ffffff"
     bordercolor="#000000"
     borderopacity="0.25"
     inkscape:showpageshadow="2"
     inkscape:pageopacity="0.0"
     inkscape:pagecheckerboard="0"
     inkscape:deskcolor="#d1d1d1"
     inkscape:document-units="mm"
     inkscape:zoom="0.21025203"
     inkscape:cx="399.52052"
     inkscape:cy="596.90268"
     inkscape:window-width="1024"
     inkscape:window-height="705"
     inkscape:window-x="-8"
     inkscape:window-y="-8"
     inkscape:window-maximized="1"
     inkscape:current-layer="layer1" />
  <defs
     id="defs1" />
  <g
     inkscape:label="Camada 1"
     inkscape:groupmode="layer"
     id="layer1">
    <g
       id="g216"
       inkscape:label="tucano"
       transform="matrix(2.9554821,0,0,2.9554821,-6259.6518,487.38144)"
       style="display:inline;stroke-width:1.9374">
      <g
         id="g121"
         style="stroke-width:1.9374">
        <path
           style="fill:#262e31;fill-opacity:1;stroke:none;stroke-width:2.37138;stroke-linecap:round;stroke-dasharray:none;stroke-opacity:1;paint-order:normal"
           d="m 2135.1814,-98.959021 c -4.822,14.967715 2.7393,16.639843 3.1248,16.639843 9.4394,0.689251 7.6727,-8.638444 6.7966,-15.468022 z"
           id="path120"
           sodipodi:nodetypes="cscc" />
        <path
           style="fill:#ffffff;fill-opacity:1;stroke:none;stroke-width:2.37138;stroke-linecap:round;stroke-dasharray:none;stroke-opacity:1;paint-order:normal"
           d="m 2133.6496,-91.792556 c 1.953,-0.546849 2.4999,-0.703091 3.4373,-0.07812 0.9375,0.62497 0.5469,0.234363 2.3437,-0.156242 1.7968,-0.390607 1.7968,0.781212 2.8905,0.703091 1.0937,-0.07812 1.5624,-0.546849 2.2655,-0.703091 0.7031,-0.156244 1.3281,0.07812 1.3281,0.07812 l -0.7812,-5.624736 -10.2339,-1.406184 c 0,0 -1.0938,5.546614 -1.1719,6.171586 -0.078,0.62497 -0.078,1.015577 -0.078,1.015577 z"
           id="path121"
           sodipodi:nodetypes="ssssscccscs" />
      </g>
      <path
         style="fill:#31393e;fill-opacity:1;stroke:none;stroke-width:2.37138;stroke-linecap:round;stroke-dasharray:none;stroke-opacity:1;paint-order:normal"
         d="m 2132.2434,-112.96343 c -4.3748,12.03068 -7.042,18.155345 -1.3761,17.188313 4.2802,-0.730524 6.1917,-5.956033 6.5321,-5.001393 z"
         id="path122"
         sodipodi:nodetypes="cscc" />
      <path
         style="fill:#0e1619;fill-opacity:1;stroke:none;stroke-width:3.72757;stroke-opacity:1"
         d="m 2159.269,-141.37517 c -8.3908,-6.67289 -19.1435,1.40058 -17.5111,13.97575 0.3209,2.47181 -0.064,1.02941 -2.2649,2.81725 -2.2462,1.82504 -6.342,5.86749 -6.905,9.83274 -0.8784,6.18606 0.1938,15.92302 6.0764,17.732083 3.204,0.66288 9.1699,-0.33145 13.1472,-4.087773 3.9773,-3.75633 10.827,-14.25195 10.827,-16.57204 0,-2.32008 -2.3735,-4.47746 -1.4362,-6.96025 1.2432,-3.29311 3.2774,-12.59383 -1.9334,-16.73776 z"
         id="path93"
         sodipodi:nodetypes="sssasssss" />
      <g
         id="g119"
         style="stroke-width:1.9374">
        <path
           style="fill:#c8b234;fill-opacity:1;stroke:#f6d103;stroke-width:2.37138;stroke-linecap:round;stroke-dasharray:none;stroke-opacity:1;paint-order:normal"
           d="m 2154.696,-104.07238 6.1869,7.291693"
           id="path118" />
        <path
           style="fill:none;fill-opacity:1;stroke:#f6d103;stroke-width:2.17774;stroke-linecap:round;stroke-dasharray:none;stroke-opacity:1;paint-order:stroke fill markers"
           d="m 2158.4418,-99.200811 c -2.9608,1.99677 -1.6037,4.564048 -1.6037,4.564048"
           id="path119" />
      </g>
      <path
         style="fill:#262e31;fill-opacity:1;stroke:none;stroke-width:3.72757;stroke-opacity:1"
         d="m 2162.867,-118.11944 c -2.6561,-5.31225 -10.7807,-6.40595 -12.4994,-4.06231 -1.7187,2.34364 -6.5622,9.99953 -7.1872,13.12438 -0.625,3.12485 -4.9597,11.375653 -0.9375,13.124384 9.26,4.025906 19.9743,-19.506034 20.6241,-22.186454 z"
         id="path94"
         sodipodi:nodetypes="cssac" />
      <path
         style="fill:#31393e;fill-opacity:1;stroke:none;stroke-width:3.72757;stroke-opacity:1"
         d="m 2155.133,-104.91694 c -6.1716,-8.51522 -6.5622,-12.96814 -6.1716,-14.37432 0.5571,-2.70308 1.6711,-4.37671 5.3122,-4.10137 1.5908,0.1203 3.7499,0.66403 4.6092,1.289 0.8593,0.62497 2.5499,1.5978 3.4373,2.49988 1.9619,1.99428 -1.741,7.50596 -3.3592,9.76517 -1.3655,1.90634 -3.8279,4.92164 -3.8279,4.92164 z"
         id="path95"
         sodipodi:nodetypes="csssssc" />
      <path
         style="fill:#fff8e6;fill-opacity:1;stroke:none;stroke-width:2.37138;stroke-linecap:round;stroke-dasharray:none;stroke-opacity:1;paint-order:normal"
         d="m 2162.3983,-116.08829 c -5.781,-7.3434 -8.6892,-6.45987 -9.7652,-11.32759 -0.3915,-1.77076 -0.078,-3.98419 1.4843,-5.23413 1.5624,-1.24994 2.8124,0.62497 4.6873,0.62497 1.8749,0 3.5936,-0.46873 3.5936,-0.46873 0,0 0.3906,-0.46872 0.3906,1.0937 0,0.88477 -0.3887,2.71993 -0.6832,4.04909 -0.1421,0.64117 -0.3199,1.2054 -0.5412,1.7935 -0.1523,0.40492 -0.3766,0.79033 -0.4162,1.34457 -0.3276,4.58357 3.138,4.19873 1.25,8.12462 z"
         id="path123"
         sodipodi:nodetypes="casscssssc" />
      <path
         style="fill:#f37d02;fill-opacity:1;stroke:none;stroke-width:1.24537;stroke-linecap:round;stroke-dasharray:none;stroke-opacity:1;paint-order:normal"
         d="m 2163.2225,-137.40427 c 2.9045,-2.7715 8.2321,0.24985 11.8937,1.8961 3.0161,1.35603 7.6706,6.29156 7.6706,6.29156 0,0 -2.758,-0.0862 -7.1536,-0.86186 -5.3301,-0.94062 -13.4449,2.41321 -13.4449,2.41321 1.651,0.0533 -1.0625,-7.73837 1.0342,-9.73901 z"
         id="path213"
         sodipodi:nodetypes="sacscs" />
      <path
         style="fill:#d89b4c;fill-opacity:1;stroke:none;stroke-width:2.37138;stroke-linecap:round;stroke-dasharray:none;stroke-opacity:1;paint-order:normal"
         d="m 2155.0275,-133.23916 c 3.5354,-4.52969 5.5236,-5.89918 5.745,-6.29738 0.3712,-0.66765 2.2903,3.76106 2.0991,5.41353 -0.1545,1.33516 -0.221,1.70967 -0.221,1.70967 0,0 -0.096,-0.002 -0.9164,0.15394 -2.3274,0.78059 -4.1333,0.26059 -6.0544,-0.74216 -0.2856,-0.14905 -0.6523,-0.2376 -0.6523,-0.2376 z"
         id="path124"
         sodipodi:nodetypes="csscssc" />
      <path
         style="fill:#000000;fill-opacity:1;stroke:none;stroke-width:2.37138;stroke-linecap:round;stroke-dasharray:none;stroke-opacity:1;paint-order:normal"
         id="path211"
         sodipodi:type="arc"
         sodipodi:cx="2160.6797"
         sodipodi:cy="-135.03271"
         sodipodi:rx="0.93745589"
         sodipodi:ry="1.5233659"
         sodipodi:start="0"
         sodipodi:end="6.2828057"
         sodipodi:open="true"
         sodipodi:arc-type="arc"
         d="m 2161.6171,-135.03271 a 0.93745589,1.5233659 0 0 1 -0.9373,1.52336 0.93745589,1.5233659 0 0 1 -0.9376,-1.52308 0.93745589,1.5233659 0 0 1 0.9372,-1.52365 0.93745589,1.5233659 0 0 1 0.9377,1.52279" />
      <path
         style="fill:#cc6400;fill-opacity:1;stroke:none;stroke-width:1.59642;stroke-linecap:round;stroke-dasharray:none;stroke-opacity:1;paint-order:normal"
         d="m 2162.0108,-132.5861 c 6.5622,-1.71867 21.1772,3.43815 21.1772,3.43815 -5.7743,-0.42411 -11.7488,-1.73277 -17.3524,0.24776 -2.0312,0.93746 -3.7498,1.40619 -3.7498,1.40619 0.192,-1.71032 1.8013,-3.91555 -0.075,-5.0921 z"
         id="path215"
         sodipodi:nodetypes="ccscc" />
      <path
         style="fill:#0e1619;fill-opacity:1;stroke:none;stroke-width:1.59642;stroke-linecap:round;stroke-dasharray:none;stroke-opacity:1;paint-order:normal"
         d="m 2177.6759,-133.91586 c -2.0439,1.76769 -1.6572,2.8863 -0.9943,2.94154 0.6629,0.0552 2.5963,0.8286 4.4745,1.49148 1.6089,0.56786 2.0872,0.51571 2.0872,0.51571 0.2188,-0.008 -2.0508,-2.18868 -4.5178,-4.10632 -0.3701,-0.28765 -1.0496,-0.84241 -1.0496,-0.84241 z"
         id="path216"
         sodipodi:nodetypes="csscsc" />
      <path
         style="fill:none;fill-opacity:1;stroke:#3b5058;stroke-width:1.59642;stroke-linecap:round;stroke-dasharray:none;stroke-opacity:1;paint-order:normal"
         d="m 2162.021,-127.73148 c 1.6651,-2.23824 0.2316,-5.12805 0.2316,-5.12805 0,0 0.4725,-1.27098 0.6925,-2.13412 0.3457,-1.35649 -2.0193,-4.43998 -2.0193,-4.43998"
         id="path212"
         sodipodi:nodetypes="ccsc" />
    </g>
  </g>
</svg>
