<?xml version="1.0" encoding="UTF-8" standalone="no"?>
<!-- Created with Inkscape (http://www.inkscape.org/) -->

<svg
   width="210mm"
   height="297mm"
   viewBox="0 0 210 297"
   version="1.1"
   id="svg1"
   inkscape:version="1.4 (86a8ad7, 2024-10-11)"
   sodipodi:docname="abrigo.svg"
   xmlns:inkscape="http://www.inkscape.org/namespaces/inkscape"
   xmlns:sodipodi="http://sodipodi.sourceforge.net/DTD/sodipodi-0.dtd"
   xmlns="http://www.w3.org/2000/svg"
   xmlns:svg="http://www.w3.org/2000/svg">
  <sodipodi:namedview
     id="namedview1"
     pagecolor="#ffffff"
     bordercolor="#000000"
     borderopacity="0.25"
     inkscape:showpageshadow="2"
     inkscape:pageopacity="0.0"
     inkscape:pagecheckerboard="0"
     inkscape:deskcolor="#d1d1d1"
     inkscape:document-units="mm"
     inkscape:zoom="0.52649411"
     inkscape:cx="482.43655"
     inkscape:cy="490.98365"
     inkscape:window-width="1440"
     inkscape:window-height="837"
     inkscape:window-x="-8"
     inkscape:window-y="-8"
     inkscape:window-maximized="1"
     inkscape:current-layer="layer1" />
  <defs
     id="defs1" />
  <g
     inkscape:label="Camada 1"
     inkscape:groupmode="layer"
     id="layer1">
    <rect
       style="fill:#575757;fill-opacity:1;stroke-width:1.166;stroke-linecap:round;stroke-linejoin:round"
       id="rect3108"
       width="86.983871"
       height="124.07001"
       x="86.041161"
       y="136.58339" />
    <rect
       style="fill:#1e1e1e;fill-opacity:1;stroke:none;stroke-width:2.29286;stroke-linecap:round;stroke-linejoin:round;stroke-dasharray:none;stroke-opacity:1"
       id="rect7814"
       width="54.815254"
       height="63.253864"
       x="89.214867"
       y="197.06236" />
    <rect
       style="fill:#ededed;fill-opacity:1;stroke:none;stroke-width:2.25262;stroke-linecap:round;stroke-linejoin:round;stroke-dasharray:none;stroke-opacity:1"
       id="rect3109"
       width="52.90807"
       height="63.253864"
       x="89.214867"
       y="197.06236" />
    <path
       style="fill:#682525;fill-opacity:1;stroke-width:1.166;stroke-linecap:round;stroke-linejoin:round"
       d="M 92.109679,123.77179 64.463687,165.24085 H 173.34628 v -40.45761 z"
       id="path3109"
       sodipodi:nodetypes="ccccc" />
    <rect
       style="fill:#aa7439;fill-opacity:1;stroke-width:1.15804;stroke-linecap:round;stroke-linejoin:round"
       id="rect1"
       width="80.10099"
       height="40.848316"
       x="75.265114"
       y="105.12828"
       ry="0"
       rx="0" />
    <rect
       style="fill:#d4b797;fill-opacity:1;stroke-width:1.15804;stroke-linecap:round;stroke-linejoin:round"
       id="rect3110"
       width="80.10099"
       height="40.848316"
       x="71.720718"
       y="101.53063"
       ry="0"
       rx="0" />
    <circle
       style="fill:#ababab;fill-opacity:0.40566;stroke:none;stroke-width:2.413;stroke-linecap:round;stroke-linejoin:round;stroke-dasharray:none;stroke-opacity:1"
       id="path7819"
       cx="114.8278"
       cy="227.11943"
       r="10.957269" />
    <rect
       style="fill:#373737;fill-opacity:1;stroke:none;stroke-width:2.413;stroke-linecap:round;stroke-linejoin:round;stroke-dasharray:none;stroke-opacity:1"
       id="rect7815"
       width="1.4303926"
       height="63.41407"
       x="114.19684"
       y="196.85878" />
    <path
       d="m 78.868133,129.8752 c 0.42243,-0.19009 0.781495,-0.57028 1.013832,-0.97159 0.274579,-0.46467 0.42243,-1.01383 0.506916,-1.54187 0.612523,0.0211 4.160935,0.0211 4.752337,0.0634 0.105608,0.67589 0.380187,1.39402 0.84486,1.92205 0.27458,0.29571 0.654767,0.54916 1.077197,0.63365 0.549159,0.12673 1.203925,0 1.68972,-0.2957 0.485794,-0.2957 0.865981,-0.76038 1.077196,-1.26729 0.27458,-0.63365 0.295701,-1.3729 0.253458,-2.04879 -0.14785,-1.94318 -0.57028,-3.88635 -1.182804,-5.74505 -0.591402,-1.79532 -1.394019,-3.59065 -2.619066,-5.00579 -0.739252,-0.84486 -1.753084,-1.58411 -2.872524,-1.77421 -0.697009,-0.12673 -1.436262,0 -2.091028,0.2957 -0.992711,0.42243 -1.858692,1.18281 -2.492337,2.04879 -0.992711,1.33065 -1.68972,2.89365 -2.196636,4.47776 -0.591402,1.75308 -0.992711,3.56953 -1.161683,5.4071 -0.06336,0.69701 -0.08449,1.41514 0.105608,2.06991 0.126729,0.42243 0.337944,0.82374 0.633645,1.11944 0.337944,0.38019 0.802617,0.65476 1.288411,0.76037 0.443552,0.0845 0.950468,0.0422 1.372898,-0.14785 z m 2.133271,-5.87178 c 0.232337,-1.09831 0.464673,-2.21775 0.950468,-3.21046 0.168972,-0.33795 0.485794,-0.88711 0.865981,-0.84486 0.401309,0.0422 0.760374,0.80261 0.908225,1.1828 0.380187,0.92935 0.591402,1.90094 0.802617,2.87252 -0.485795,-0.0211 -3.041496,-0.0422 -3.527291,0 z m 18.598219,6.10412 c 0.549157,-0.23234 1.077197,-0.5914 1.520747,-1.03496 0.69701,-0.65476 1.28841,-1.49962 1.62635,-2.38672 0.7815,-1.9643 0.73926,-4.37216 -0.0845,-6.29421 -0.31682,-0.7815 -0.82374,-1.52075 -1.47851,-2.02767 -0.44355,-0.35906 -0.99271,-0.63364 -1.562987,-0.76037 -0.971591,-0.21121 -2.027661,0.23234 -2.893641,0.71813 0.0634,-0.86598 0.12673,-1.75308 -0.0211,-2.59794 -0.10561,-0.46468 -0.27458,-0.92935 -0.59141,-1.28841 -0.2957,-0.31683 -0.69701,-0.57029 -1.11944,-0.63365 -1.43626,-0.2957 -2.49233,1.28841 -2.87252,2.70355 -0.760374,2.95701 -0.739253,6.14636 -0.337944,9.18785 0.14785,1.0772 0.443554,2.1544 0.950464,3.10487 0.27458,0.48579 0.61253,0.97158 1.05608,1.26729 0.27458,0.19009 0.63364,0.31682 0.97159,0.2957 0.38018,-0.0211 0.76037,-0.21122 1.07719,-0.42243 1.11944,0.54916 2.59795,0.65476 3.759631,0.16897 z m -2.957011,-5.51271 c -0.23234,-0.92935 -0.0845,-2.51346 0.73925,-2.99926 0.27458,-0.16897 0.57028,-0.19009 0.84486,-0.0422 0.82374,0.44355 0.92935,1.94318 0.73926,2.8514 -0.0845,0.40131 -0.27458,0.80262 -0.59141,1.05608 -0.65476,0.52804 -1.52074,-0.0422 -1.73196,-0.86598 z m 11.754878,5.36486 c 1.18281,-0.5914 1.56299,-3.61178 1.73196,-4.92131 0,-0.14785 0.29571,-0.63365 0.35907,-0.73925 0.23234,-0.38019 0.61252,-0.7815 1.05608,-0.84486 0.63364,-0.0845 1.28841,0.19009 1.94317,0.23233 0.23234,0.0211 0.4858,-0.0422 0.67589,-0.16897 0.25346,-0.16897 0.44355,-0.42243 0.57028,-0.69701 0.21122,-0.42243 0.2957,-0.90822 0.33795,-1.3729 0.0211,-0.48579 0,-0.99271 -0.1901,-1.43626 -0.23233,-0.5914 -0.71813,-1.09832 -1.28841,-1.35177 -0.71813,-0.31683 -1.6686,-0.23234 -2.36561,0.14785 -0.44355,0.23233 -0.84486,0.50691 -1.22504,0.84486 -0.0634,-0.16898 -0.0845,-0.31683 -0.16898,-0.46468 -0.1056,-0.21121 -0.63364,-0.84486 -0.82373,-0.99271 -0.52804,-0.33794 -1.79533,-0.48579 -2.34449,-0.21121 -0.44355,0.21121 -0.82374,0.57028 -1.0772,0.99271 0,0.0211 0,0.0211 -0.0211,0.0422 -0.25346,0.2957 -0.42243,0.67589 -0.54916,1.05608 -0.52804,1.52074 -0.61252,3.21046 -0.46467,4.8157 0.10561,1.20392 0.2957,2.42897 0.76037,3.54841 0.23234,0.54916 0.57028,1.0772 1.03496,1.43626 0.44355,0.35907 1.54187,0.35907 2.04878,0.0845 z m 12.24067,-10.94094 c 0.73925,-0.31682 1.30953,-1.14056 1.45738,-1.92206 0.0634,-0.33794 0.0422,-0.71813 -0.1056,-1.03495 -0.16897,-0.44355 -0.54916,-0.80262 -0.95047,-1.05607 -0.2957,-0.16898 -0.61252,-0.31683 -0.92935,-0.40131 -0.57028,-0.12673 -1.1828,-0.10561 -1.71084,0.1056 -0.57028,0.23234 -1.05607,0.65477 -1.39402,1.16169 -0.54916,0.84486 -0.40131,2.02766 0.2957,2.66131 0.71814,0.61252 2.47122,0.84486 3.3372,0.48579 z m -0.23234,10.81421 c 0.33795,-0.25346 0.54916,-0.67589 0.73926,-1.0772 0.35906,-0.82374 0.50691,-1.73196 0.63364,-2.61906 0.16897,-1.0772 0.33795,-2.1544 0.27458,-3.23159 -0.0422,-0.63365 -0.21121,-1.26729 -0.46467,-1.8587 -0.10561,-0.23233 -0.65477,-0.80261 -0.8871,-0.92934 -0.46468,-0.25346 -1.77421,-0.38019 -2.28113,-0.21122 -0.44355,0.16898 -0.84486,0.4858 -1.11944,0.86599 l -0.0211,0.0211 c -0.35906,0.33794 -0.54916,0.80261 -0.69701,1.26729 -0.44355,1.39402 -0.46467,2.93589 -0.23233,4.39327 0.14785,0.92934 0.38018,1.87981 0.8871,2.64019 0.23234,0.33794 0.50692,0.67588 0.86598,0.86598 0.57028,0.2957 1.77421,0.25346 2.30224,-0.12673 z m 11.48028,3.94972 c 0.69701,-0.25346 1.30953,-0.71813 1.79533,-1.26729 0.99271,-1.03495 1.56299,-2.45009 1.87981,-3.84411 0.48579,-2.06991 0.48579,-4.24543 0.38019,-6.3787 -0.0422,-0.76037 -0.12673,-1.56299 -0.40131,-2.28112 -0.2957,-0.76037 -0.84486,-1.58411 -1.60524,-1.83757 -0.63364,-0.21121 -1.85869,-0.0634 -2.32336,0.42243 -0.50692,-0.31682 -1.05608,-0.54916 -1.64748,-0.67589 -1.83757,-0.35906 -3.75962,0.2957 -5.02691,1.68972 -0.80262,0.90823 -1.33066,2.09103 -1.52075,3.29496 -0.16897,1.11944 -0.0211,2.32336 0.46467,3.33719 0.31682,0.67589 0.84486,1.28842 1.45738,1.71085 1.03496,0.71813 2.40786,1.03495 3.65402,0.86598 0.73926,-0.0845 1.43627,-0.44355 2.02767,-0.90823 -0.0845,0.46468 -0.21122,0.97159 -0.57028,1.28841 -0.27458,0.25346 -0.69701,0.31683 -1.0772,0.31683 -0.71813,0 -1.43626,-0.21122 -2.13327,-0.0634 -1.43626,0.27458 -1.85869,2.06991 -0.97159,3.25271 1.0772,1.45739 3.9286,1.73197 5.61832,1.0772 z m -3.46393,-8.70206 c -0.19009,-0.16897 -0.2957,-0.42243 -0.35906,-0.65477 -0.14785,-0.78149 0.19009,-2.04878 0.8871,-2.45009 0.7815,-0.44355 1.64748,0.16897 1.68972,1.05608 0,0.57028 -0.25346,1.14056 -0.5914,1.58411 -0.40131,0.52804 -1.11944,0.90822 -1.62636,0.46467 z m 15.02869,5.17477 c 0.80262,-0.0845 1.62635,-0.40131 2.21776,-0.95047 0.71813,-0.65477 1.30953,-1.52075 1.6686,-2.45009 0.697,-1.6686 0.82373,-3.59066 0.63364,-5.36486 -0.10561,-0.88711 -0.40131,-1.79533 -0.92935,-2.51346 -0.73925,-0.97159 -1.87981,-1.77421 -3.08373,-1.92206 -0.97159,-0.12673 -2.00655,0 -2.91477,0.35907 -0.71813,0.2957 -1.35178,0.73925 -1.90094,1.30953 -0.48579,0.50692 -0.86598,1.14056 -1.11944,1.79533 -0.48579,1.16168 -0.69701,2.42897 -0.76037,3.67514 -0.0211,0.86598 0.10561,1.75308 0.42243,2.5557 0.42243,1.1828 1.24617,2.30224 2.32336,2.93589 0.99272,0.5914 2.28113,0.69701 3.44281,0.57028 z m -1.68972,-5.15365 c -0.23234,-0.42243 -0.23234,-0.95046 -0.16897,-1.43626 0.0634,-0.65477 0.23233,-1.33065 0.46467,-1.9643 0.23234,-0.67589 1.03495,-1.14056 1.47851,-0.5914 0.0845,0.10561 0.14785,0.23234 0.19009,0.35906 0.23234,0.61253 0.2957,1.28842 0.25346,1.94318 -0.0422,0.54916 -0.14785,1.11944 -0.46468,1.56299 -0.42243,0.61253 -1.35177,0.76038 -1.75308,0.12673 z"
       id="text1"
       style="font-size:21.1215px;line-height:0.9;font-family:'Game Bubble';-inkscape-font-specification:'Game Bubble, Normal';text-align:center;letter-spacing:0.011315px;word-spacing:-0.00565753px;text-anchor:middle;fill:#ffffff;fill-rule:evenodd;stroke-width:0;stroke-linecap:round;stroke-linejoin:round;stroke-miterlimit:2000;paint-order:fill markers stroke;fill-opacity:1"
       aria-label="Abrigo"
       sodipodi:nodetypes="scccccsccccccccccccsscccccccccccccccccccccccsccccsscccccccccccccccccccccccccccccccccccccscccscccccsccccscccccccccsccssccccccccccccccccccccccccccc" />
  </g>
</svg>
