<?xml version="1.0" encoding="UTF-8" standalone="no"?>
<!-- Created with Inkscape (http://www.inkscape.org/) -->

<svg
   width="520mm"
   height="520mm"
   viewBox="0 0 520 520"
   version="1.1"
   id="svg1"
   xml:space="preserve"
   inkscape:version="1.4 (86a8ad7, 2024-10-11)"
   sodipodi:docname="fogo animação svg.svg"
   xmlns:inkscape="http://www.inkscape.org/namespaces/inkscape"
   xmlns:sodipodi="http://sodipodi.sourceforge.net/DTD/sodipodi-0.dtd"
   xmlns="http://www.w3.org/2000/svg"
   xmlns:svg="http://www.w3.org/2000/svg"><sodipodi:namedview
     id="namedview1"
     pagecolor="#ffffff"
     bordercolor="#000000"
     borderopacity="0.25"
     inkscape:showpageshadow="2"
     inkscape:pageopacity="0.0"
     inkscape:pagecheckerboard="0"
     inkscape:deskcolor="#d1d1d1"
     inkscape:document-units="mm"
     inkscape:zoom="0.016508619"
     inkscape:cx="7723.2383"
     inkscape:cy="1605.2221"
     inkscape:window-width="1440"
     inkscape:window-height="837"
     inkscape:window-x="-8"
     inkscape:window-y="-8"
     inkscape:window-maximized="1"
     inkscape:current-layer="layer1"><inkscape:page
       x="0"
       y="0"
       width="520"
       height="520"
       id="page21"
       margin="0"
       bleed="0" /><inkscape:page
       x="530"
       y="0"
       width="520"
       height="520"
       id="page22"
       margin="0"
       bleed="0" /><inkscape:page
       x="1060"
       y="0"
       width="520"
       height="520"
       id="page23"
       margin="0"
       bleed="0" /><inkscape:page
       x="1590"
       y="0"
       width="520"
       height="520"
       id="page24"
       margin="0"
       bleed="0" /><inkscape:page
       x="2120"
       y="0"
       width="520"
       height="520"
       id="page25"
       margin="0"
       bleed="0" /><inkscape:page
       x="2650"
       y="0"
       width="520"
       height="520"
       id="page26"
       margin="0"
       bleed="0" /></sodipodi:namedview><defs
     id="defs1" /><g
     inkscape:label="Camada 1"
     inkscape:groupmode="layer"
     id="layer1"><g
       id="g8"
       transform="matrix(15.856714,0,0,15.856714,-16442.5,-21926.978)"><path
         style="fill:#e51519;fill-opacity:1;stroke-width:0.600001"
         d="m 1045.537,1403.1495 c 0.7825,1.1269 0.626,1.753 0.7199,2.4729 0.094,0.72 -0.3443,0.2505 0.6574,1.6591 1.0017,1.4086 4.4136,3.8502 5.4779,3.5998 1.0643,-0.2504 3.0364,0.4695 5.4154,-1.7217 2.379,-2.1912 3.0677,-3.0363 3.099,-3.3493 0.031,-0.3131 0.5321,-3.5373 -0.031,-4.8207 -0.5635,-1.2834 -1.2834,-1.9094 -1.2834,-1.9094 0,0 -0.3131,2.2225 -0.9391,1.4399 -0.6261,-0.7826 -0.4383,-1.753 -0.3444,-2.4729 0.094,-0.72 1.1896,-0.7513 0.031,-2.0034 -1.1582,-1.2521 -2.1599,-1.5338 -2.1599,-1.5338 0,0 -0.063,1.3773 -0.5322,1.7529 -0.4695,0.3757 -0.5947,-0.1252 -1.5025,-0.9704 -0.9078,-0.8451 -2.2538,-1.6277 -2.379,-1.5338 -0.1252,0.094 0.5008,1.659 -0.031,1.346 -0.5322,-0.313 -0.2505,-0.3756 -0.72,-1.1582 -0.4695,-0.7825 -1.4712,-1.0643 -1.6903,-1.5651 -0.2192,-0.5008 -0.1252,-1.0017 -0.1252,-1.0017 0,0 -0.9704,0.7513 -1.3147,1.5964 -0.3444,0.8452 -0.094,1.8156 0.094,2.5043 0.1878,0.6886 0.939,1.5338 0.2191,1.2208 -0.72,-0.3131 -1.1582,-0.4696 -1.2208,-1.3148 -0.063,-0.8451 -0.3757,1.5026 -0.3444,1.6591 0.031,0.1565 1.1582,0.8765 1.5652,1.5338 0.4069,0.6574 1.0956,1.6591 0.1878,1.5652 -0.9078,-0.094 -1.0643,0.1252 -1.0643,-0.3757 0,-0.5008 0.1252,-1.0643 0.1252,-1.0643 0,0 -1.5964,1.4713 -1.5338,2.379 0.063,0.9078 0.4382,0.8139 0.8138,1.6591 0.3757,0.8452 1.1583,1.1895 0.1566,0.9078 -1.0017,-0.2818 -1.346,-0.5009 -1.346,-0.5009 z"
         id="path1" /><path
         style="fill:#fd8526;fill-opacity:1;stroke-width:0.600001"
         d="m 1047.1761,1407.7004 c 0,-0.7526 -0.4427,-2.6119 -0.4427,-2.6119 l 1.8592,0.9739 c 0,0 -0.1327,-1.2395 -0.7525,-2.0806 -0.6198,-0.8411 -0.487,-1.1067 -0.3542,-1.6822 0.1328,-0.5755 -0.1328,-0.3985 0.6641,0.3984 0.7968,0.7968 1.1952,1.4166 0.9296,0.6197 -0.2656,-0.7968 -1.0625,-0.9296 -0.3984,-1.5936 0.664,-0.664 1.0624,0 1.1953,-0.7969 0.1328,-0.7968 -0.9297,-1.151 -0.8854,-2.0806 0.044,-0.9296 0.7083,-2.2577 0.3099,-3.0545 -0.3985,-0.7969 -0.8411,-1.3724 -0.8411,-1.3724 0,0 2.0363,0.7083 2.3462,1.6822 0.3099,0.9739 0.3541,1.5937 0.5755,1.151 0.2213,-0.4427 -0.2214,-0.9296 0.1328,-0.9739 0.3541,-0.044 1.0624,0.089 1.2838,0.8411 0.2213,0.7526 0.4427,1.6822 0.8411,1.9479 0.3984,0.2656 0.9739,-0.1328 0.8411,-0.5755 -0.1328,-0.4427 3.0545,1.8592 3.453,3.0988 0.3984,1.2395 0.4426,1.5936 0.6197,1.5936 0.1771,0 0.5755,-1.328 0.5755,-1.328 0,0 1.6822,1.2837 0.6198,2.4347 -1.0625,1.151 -0.3542,0.5313 -0.3542,1.1953 0,0.6641 0.1771,1.5051 0.1771,1.5051 -4.1825,6.1874 -8.626,4.7087 -12.3952,0.7084 z"
         id="path7"
         sodipodi:nodetypes="cccsssssssscsssssssscsscc" /><path
         style="fill:#f9db4d;fill-opacity:1;stroke-width:0.600001"
         d="m 1049.8612,1409.6055 c -0.4421,-0.8115 0.313,-2.7547 0.313,-2.7547 l 0.9704,1.033 c 0,0 0.1878,-3.2241 1.1895,-4.2572 1.0017,-1.0329 1.0643,-1.9407 0.9078,-2.6294 -0.1565,-0.6886 -0.4696,-1.6277 -0.4696,-1.6277 0,0 1.2208,3.725 1.5652,4.5702 0.3443,0.8451 0.626,0.9077 0.626,0.9077 0.6885,0.243 0.1058,-3.0241 0.1786,-2.4713 0.1464,1.1103 2.3882,2.9722 2.6074,3.8174 0.2191,0.8451 0.6886,-0.2817 0.6886,-0.2817 0,0 1.0017,0.9077 0.8765,1.5651 -0.2966,1.5572 -3.6121,3.7175 -5.9788,3.8502 -1.2906,0.072 -2.8563,-0.5865 -3.4746,-1.7216 z"
         id="path8"
         sodipodi:nodetypes="accsscscsscsaa" /></g><g
       id="g10"
       transform="matrix(15.856714,0,0,15.856714,-16287.189,-21959.032)"><path
         style="fill:#e12021;fill-opacity:1;stroke-width:0.600001"
         d="m 1068.4863,1406.3676 c 1.1871,3.0424 4.9078,4.0981 7.9195,4.1007 3.253,0.116 9.5321,-3.227 9.6413,-6.7301 -0.063,-0.6887 0.1565,-0.2191 -0.5322,-0.1252 -0.6886,0.094 -1.0643,0.1878 -0.6886,-0.4382 0.3756,-0.6261 1.0329,-1.8469 1.0016,-2.2851 -0.031,-0.4383 0,-1.033 0,-1.033 0,0 -0.3756,1.3147 -1.0955,1.2208 -0.72,-0.094 -1.3461,-0.1878 -0.9704,-0.8139 0.3756,-0.6261 1.0643,-2.692 0.626,-3.0677 -0.4382,-0.3756 -1.1582,0.2191 -1.7216,-0.3443 -0.5635,-0.5634 -0.1252,-1.8469 -0.407,-3.1303 -0.2817,-1.2834 -0.7512,-1.5651 -0.7512,-1.5651 0,0 0.8765,1.5338 0.063,2.5981 -0.8139,1.0643 -0.7826,1.0643 -0.7826,1.6591 0,0.5947 -0.626,1.2521 -0.8139,0.3756 -0.1878,-0.8765 0.1253,-2.2225 -0.4069,-2.8172 -0.5321,-0.5948 -0.5948,0.4382 -1.2208,0.6573 -0.626,0.2191 -0.5947,0.3443 -0.9078,-0.626 -0.313,-0.9704 -0.313,-2.1286 0.031,-2.5982 0.3444,-0.4695 2.0034,-0.9077 2.0034,-0.9077 0,0 -2.3477,0.3756 -2.7859,1.033 -0.4383,0.6573 -0.031,1.3147 -1.1895,1.5651 -1.1582,0.2504 -1.8156,0.4695 -1.7217,1.5025 0.094,1.033 0.7826,1.346 0.5008,2.1912 -0.2817,0.8452 -0.1878,1.4399 -0.8451,1.1895 -0.6574,-0.2504 -1.1269,-0.1878 -0.9391,-0.9391 0.1878,-0.7512 0.8765,-1.1582 0.8765,-1.1582 0,0 -2.7547,1.0643 -2.3164,2.3477 0.4382,1.2834 2.0347,1.3773 2.1599,1.9095 0.1252,0.5321 0.9703,0.7513 0.2817,1.3773 -0.6887,0.6261 -0.72,1.1269 -1.033,0.8452 -0.313,-0.2818 0.1252,-0.407 -0.2817,-0.9078 -0.407,-0.5008 -1.1582,-1.0643 -1.1582,-1.0643 0,0 0.2191,1.3147 -0.1565,0.8452 -0.3757,-0.4695 -1.0017,-1.6278 -1.3461,-2.066 -0.3443,-0.4382 -0.8138,-0.3443 -0.8764,-0.9078 -0.063,-0.5634 -0.063,-0.7825 -0.063,-0.7825 0,0 -0.4696,1.0643 -0.1252,1.9407 0.3443,0.8765 0.7512,1.3774 0.7512,1.753 0,0.3756 -0.4382,0.1878 0.031,0.8451 0.4696,0.6574 0.8765,0.8452 0.8139,1.3774 -0.063,0.5321 0.3443,1.0956 -0.4696,0.626 -0.8138,-0.4695 -1.0016,-0.3443 -1.3147,-1.2521 -0.313,-0.9078 -0.3756,-0.2504 -0.3756,-0.2504 0,0 0.9704,1.7216 1.2834,2.4729 0.313,0.7513 0.7826,0.9078 0.313,1.2834 -0.4695,0.3756 -1.0016,0.094 -1.0016,0.094 z"
         id="path2"
         sodipodi:nodetypes="cscssscssssscssssssccsssssscssssscssccssscsscsscc" /><path
         style="fill:#f68030;fill-opacity:1;stroke-width:0.600001"
         d="m 1071.032,1409.1139 c 0.4426,-2.4791 0.3984,-2.4348 0.4426,-2.8332 0.044,-0.3984 0.044,2.0364 0.487,1.5494 0.4427,-0.487 0.8411,-0.7526 0.3542,-1.9035 -0.487,-1.151 -1.0182,-1.1068 -0.7969,-1.9479 0.2214,-0.8411 0.3099,-1.0182 0.3099,-1.0182 0,0 -0.044,0.5755 0.5312,1.0625 0.5755,0.4869 1.0182,0.3984 1.1953,0.8411 0.1771,0.4427 0.3541,-0.7969 0.9296,-1.7708 0.5755,-0.9739 0.7969,-1.2395 0.3099,-2.1691 -0.487,-0.9297 -0.7526,-1.6822 -0.7526,-1.6822 0,0 0.8411,1.151 1.3281,1.3723 0.487,0.2214 0.1328,-0.5312 0.2213,-1.1953 0.089,-0.664 0.3099,-0.9739 0.3099,-0.9739 l 0.5755,0.7526 c 0,0 0.7526,0.3984 0.4427,-0.5755 -0.3099,-0.9739 -1.7265,-1.7265 -0.9739,-2.7447 0.7525,-1.0181 0.9296,-1.2395 0.9296,-1.2395 0,0 -1.0624,0.9739 -0.044,1.8593 1.0181,0.8854 2.479,3.5858 2.6118,4.2055 0.1328,0.6198 0.2213,0.9297 0.2213,0.9297 0,0 0.3985,-0.4427 0.8854,-0.8854 0.487,-0.4427 -0.2213,0.1771 0,0.7526 0.2214,0.5755 0.044,0.7083 0.4427,0.7083 0.3984,0 1.815,-1.2396 1.7708,-1.9036 -0.044,-0.664 0.089,-0.8854 -0.2656,-1.7265 -0.3542,-0.8411 -0.3542,-0.8411 -0.3542,-0.8411 0,0 1.5937,1.3281 1.151,2.966 -0.4427,1.638 -2.3462,4.7811 -1.638,4.9139 0.7083,0.1328 1.151,-0.3099 1.3281,-0.8854 0.1771,-0.5755 0,2.7004 -0.2213,3.0988 -0.2214,0.3984 -0.2656,0.7526 -0.2656,0.7526 0,0 -1.2396,1.1952 -3.3202,1.5051 -2.0806,0.3099 -5.268,0.3984 -6.3747,0 -1.1067,-0.3984 -1.7707,-0.9739 -1.7707,-0.9739 z"
         id="path9" /><path
         style="fill:#f9db4d;fill-opacity:1;stroke-width:0.600001"
         d="m 1072.7496,1410.4766 c 0.7199,-2.5668 1.2207,-2.8798 1.2207,-2.8798 0,0 0.407,2.2851 0.6574,1.5651 0.2504,-0.7199 0.72,-1.0643 0.4383,-1.659 -0.2818,-0.5948 -0.3444,-1.033 0.1565,-1.2834 0.5008,-0.2505 0.1252,-1.4713 0.1252,-1.4713 0,0 0.094,1.7217 0.5634,2.2225 0.4695,0.5009 1.2208,-0.063 1.0017,-1.0643 -0.2191,-1.0017 0.1252,-2.8485 0.3756,-3.5372 0.2505,-0.6886 0.6574,2.1286 1.1269,2.7547 0.4696,0.626 1.0956,0.9391 0.6261,1.5651 -0.4696,0.626 -0.8765,1.2521 -0.3757,1.3147 0.5009,0.063 0.8765,-0.1565 0.8765,-0.5947 0,-0.4383 0.2192,1.033 0.2192,1.4712 0,0.4382 0.5947,0.1252 0.7199,0.063 0.1252,-0.063 1.0956,0.1565 1.0956,0.2817 0,0.1252 -1.0017,0.6887 -1.3147,0.72 -0.313,0.031 -2.3164,0.8765 -4.0694,0.9078 -1.7529,0.031 -3.4432,-0.3757 -3.4432,-0.3757 z"
         id="path10" /></g><g
       id="g18"
       transform="matrix(15.856714,0,0,15.856714,-16135.067,-21744.175)"><path
         style="fill:#e12021;fill-opacity:1;stroke-width:0.600001"
         d="m 1092.1708,1389.0815 c -2.9573,15.142 19.1799,10.5848 17.2648,2.6118 -0.3589,-1.4942 0.2656,-3.5414 0.2656,-3.5414 0,0 -0.089,1.7707 -1.7708,2.2576 -1.6821,0.487 -2.0806,0.487 -1.6821,-0.2656 0.3984,-0.7525 1.2395,-3.0545 0.5754,-4.0727 -0.664,-1.0182 -1.2395,-2.7447 -1.2395,-2.7447 0,0 0.089,2.302 -0.3984,2.5676 -0.487,0.2657 -1.7708,1.151 -1.815,0.2214 -0.044,-0.9297 0.7525,-0.9297 0.4869,-2.1692 -0.2656,-1.2395 -2.7003,-5.0466 -2.8774,-6.596 -0.1771,-1.5494 2.3019,-4.9139 2.3019,-4.9139 0,0 -3.1873,1.5052 -3.7628,2.7004 -0.5755,1.1953 -1.815,1.5937 -0.8411,3.2317 0.9739,1.6379 1.3281,2.5233 0.9296,3.4972 -0.3984,0.9739 -0.7525,2.4348 -1.1509,2.5676 -0.3985,0.1328 -0.487,-0.044 -0.4427,-1.0182 0.044,-0.9739 -0.3542,-1.7708 -0.7083,-2.5233 -0.3542,-0.7526 -0.1771,0.8411 -0.1771,0.8411 0,0 -0.8411,1.6379 -0.8854,0.8411 -0.044,-0.7969 -0.044,-1.9036 -0.2656,-2.5233 -0.2213,-0.6198 -2.6118,-3.2759 -2.6118,-3.2759 0,0 1.7707,2.5676 1.5051,3.5415 -0.2656,0.9739 -0.8854,2.0363 -1.151,1.5494 -0.2656,-0.487 -0.5312,-0.8854 -0.3541,-2.0806 0.177,-1.1953 -0.044,-1.1953 -0.044,-1.1953 0,0 -1.5052,4.2055 -0.8411,5.6664 0.664,1.4608 1.1952,1.5494 1.9478,2.7889 0.7526,1.2395 1.5937,2.1692 0.7526,1.9921 -0.8411,-0.1771 -2.302,-1.5051 -2.302,-1.5051 0,0 0.9739,0.8853 0.7083,1.4608 -0.2656,0.5755 0,1.0625 -0.487,0.5313 -0.4869,-0.5313 -0.9296,-0.4427 -0.9296,-0.4427 z"
         id="path3"
         sodipodi:nodetypes="cscssscsssscsssssscsscssscssscsscc" /><path
         style="fill:#f68030;fill-opacity:1;stroke-width:0.600001"
         d="m 1100.8475,1399.1748 c 3.8956,-0.7969 4.117,-1.0182 5.0909,-1.6823 0.9739,-0.664 2.6118,-3.9841 2.6118,-3.9841 0,0 -2.7889,2.3019 -3.143,2.0806 -0.3542,-0.2214 -0.1329,-0.487 0.1328,-0.9296 0.2656,-0.4427 0.9296,-1.9036 0.9296,-2.6562 0,-0.7526 0,-0.7526 0,-0.7526 0,0 -0.1467,0.5508 -0.5223,0.5508 -0.3757,0 -0.6574,-0.094 -0.6574,-0.094 0,0 0.6887,-0.4382 0.6261,-1.2834 -0.063,-0.8451 -0.1253,-1.1269 -0.1253,-1.1269 0,0 -0.4695,1.4399 -1.4086,1.4712 -0.9391,0.031 -0.9391,0.031 -0.9391,0.031 0,0 0.7513,-2.4416 0.5635,-3.0989 -0.1878,-0.6574 -1.5965,-1.753 -1.5965,-2.7546 0,-1.0017 -0.031,-2.9425 -0.031,-2.9425 0,0 -0.8764,2.1599 -0.5008,3.0677 0.3756,0.9077 0.6887,1.2521 0.3756,2.0033 -0.313,0.7513 -1.1269,2.5982 -1.4712,2.8486 -0.3443,0.2504 -0.5008,-0.063 -0.5008,-0.6574 0,-0.5947 -1.5339,-1.7842 -2.2851,-2.2225 -0.7513,-0.4382 -1.44,-1.3773 -1.4086,-2.5355 0.031,-1.1582 0.031,-1.2208 0.031,-1.2208 0,0 -0.3757,3.5059 0.3443,4.8832 0.7199,1.3773 1.0017,1.9408 0.6886,2.7233 -0.313,0.7826 -0.5008,1.127 -0.626,1.127 -0.1252,0 -0.4696,-1.033 -0.4696,-1.033 0,0 -1.3773,1.7529 -1.0643,2.7859 0.3131,1.033 1.0017,2.1286 1.0017,2.1286 l -1.7529,-0.5009 c 0,0 0.7199,1.4087 1.0956,1.9721 0.3756,0.5635 0.8139,1.1895 1.8155,1.4712 1.0017,0.2818 3.4746,0.3444 3.4746,0.3444 z"
         id="path11" /><path
         style="fill:#fddd4e;fill-opacity:1;stroke-width:0.600001"
         d="m 1097.2534,1397.5715 c 0,0 0.7825,-2.379 0.3443,-3.4119 -0.4382,-1.0331 -0.6573,-1.5965 -0.6573,-1.5965 l 1.8468,0.7826 c 0,0 0.5009,-1.9721 0.313,-2.6921 -0.1878,-0.7199 -0.4695,-0.9077 -0.2504,-0.939 0.2191,-0.031 2.1912,1.5025 2.2225,1.972 0.031,0.4696 -0.1252,0.7826 0.2504,0.2818 0.3757,-0.5009 1.1895,-2.0034 1.0017,-2.5043 -0.1878,-0.5008 -0.3443,-0.6573 -0.3443,-0.6573 0,0 1.4712,2.2538 1.3773,3.099 -0.094,0.8451 -1.1582,1.5338 -0.2504,1.6277 0.9078,0.094 0.6886,0.2504 1.1582,-0.1252 0.4695,-0.3757 0.5947,-1.4399 0.5947,-1.4399 0,0 -0.3443,2.2538 -0.3443,2.8485 0,0.5947 -0.031,0.8452 -0.4069,1.4086 -0.3757,0.5635 0,0.1565 -0.6887,1.033 -0.6887,0.8765 -1.0956,1.5965 -1.3773,1.6904 -0.2903,0.097 -4.7893,0.6833 -4.7893,-1.3774 z"
         id="path12"
         sodipodi:nodetypes="csccssssscssscssssc" /></g><g
       id="g19"
       transform="matrix(15.856714,0,0,15.856714,-14850.691,-22809.969)"><path
         style="fill:#e41518;fill-opacity:1;stroke-width:0.600001"
         d="m 1044.4793,1455.5735 c 1.4166,3.4087 1.2395,2.3904 2.1692,3.7185 0.9296,1.3281 1.5051,2.2577 2.479,3.0988 0.9739,0.8411 4.0728,1.7265 5.7107,1.3281 1.6379,-0.3984 2.8775,-0.7526 4.2055,-1.9921 1.3281,-1.2395 2.479,-2.7446 2.7447,-3.4972 0.2656,-0.7526 0.177,-1.3281 0.1328,-1.7708 -0.044,-0.4427 -0.2656,-1.5936 -0.2656,-1.5936 0,0 -0.089,1.5936 -0.4427,1.1509 -0.3542,-0.4426 -0.8854,-4.4711 -0.8854,-4.6482 0,-0.177 0.088,1.1953 -0.2213,1.638 -0.3099,0.4427 -0.487,0.3099 -0.487,0.3099 0,0 -0.3984,-2.4348 -0.5091,-3.2095 -0.1107,-0.7747 0.066,1.4166 -0.2877,1.2616 -0.3542,-0.1549 -1.4166,-0.5754 -1.0182,-1.5051 0.3984,-0.9297 1.4387,-2.8996 0.3099,-3.7628 -1.1289,-0.8633 -1.9479,-1.5716 -1.9257,-1.9921 0.022,-0.4206 -0.4427,-1.0625 -1.9478,-1.9921 -1.5052,-0.9297 1.483,1.0624 0.9075,1.5715 -0.5755,0.5091 -1.2617,0.7969 -1.1289,1.5494 0.1328,0.7526 0.4121,1.7305 0.2556,2.0435 -0.1565,0.313 -0.2818,0.7199 -0.6887,0.2191 -0.4069,-0.5008 -1.1269,-0.6573 -1.3147,-1.2208 -0.1878,-0.5635 -0.094,-1.3773 -0.094,-1.3773 0,0 -1.7529,1.2834 -1.4086,2.2225 0.3443,0.9391 1.7216,2.6294 1.1895,3.0989 -0.5322,0.4696 -0.4393,2.6343 -1.0337,2.29 -0.5947,-0.3443 -1.7406,-3.7242 -1.7406,-3.7242 0,0 -1.2325,2.2481 -0.5751,3.5315 0.6573,1.2834 1.1582,2.3164 0.9391,2.4729 -0.2192,0.1565 -0.5948,0.4696 -0.8452,-0.031 -0.2504,-0.5008 -1.162,-0.5843 -1.162,-0.5843 0,0 -0.3316,1.4634 0.1066,2.8407 0.4383,1.3773 0.2415,0.3418 0.022,0.8426 -0.2191,0.5008 0.1068,0.6215 -0.8452,0.2504 -1.4329,-0.5586 -1.7034,-1.5142 -2.3453,-2.5377 z"
         id="path4"
         sodipodi:nodetypes="cssssssccsccssssssssssscssscssscsssc" /><path
         style="fill:#fd8526;fill-opacity:1;stroke-width:0.506724"
         d="m 1049.7223,1462.7242 c -0.6345,-1.5334 -0.2644,-2.1679 -0.4759,-2.8552 -0.2115,-0.6873 -0.2115,-2.2735 -0.2115,-2.485 0,-0.2115 0.2643,1.3218 0.7402,1.4276 0.4759,0.1057 1.0046,-0.7402 0.846,-2.115 -0.1586,-1.3746 -0.846,-2.3263 -0.5288,-2.908 0.3173,-0.5815 0.5288,-0.5815 0.5288,-0.5815 0,0 0.3172,1.7447 0.423,2.062 0.1057,0.3172 0.3173,-0.7402 0.3173,-0.7402 0,0 0.3172,1.1631 0.6872,1.639 0.3702,0.4759 0.2116,-0.6873 0.3173,-1.4276 0.1058,-0.7401 1.269,-1.216 1.0575,-2.0091 -0.2115,-0.7931 -0.1058,0.8459 0.2643,0.8988 0.3701,0.053 0.3701,-0.1586 0.4759,-1.2689 0.1058,-1.1103 1.2689,-1.5862 1.2161,-2.6437 -0.053,-1.0574 -0.053,-1.216 -0.053,-1.216 0,0 0.8988,0.6873 0.7931,1.7448 -0.1058,1.0574 -0.5817,1.0574 -0.1058,1.5861 0.4758,0.5288 0.1586,0.7931 0.1586,1.3219 0,0.5287 0.2644,0.4229 0.9518,1.5861 0.6872,1.1632 0.9517,1.4276 0.6872,2.2207 -0.2643,0.7931 -0.2114,2.6965 0.2645,1.7448 0.4758,-0.9517 0.6344,-1.4275 0.793,-2.062 0.1587,-0.6345 0,0.1057 0,0.423 0,0.3172 -0.2115,0.8988 0.1058,1.6918 0.3172,0.7932 0.5287,0.2645 0.5287,0.053 0,-0.2116 0.1057,-1.1633 0.1057,-1.1633 0,0 0.3172,1.6391 0.2115,2.2206 -0.1057,0.5817 -0.053,0.6874 -0.8988,1.5334 -0.8459,0.8459 -1.7976,1.7448 -2.5908,1.9563 -0.7931,0.2114 -1.1631,0.4229 -2.4321,0.4229 -1.269,0 -3.5953,-0.5815 -3.8069,-0.6344 -0.2115,-0.053 -0.3701,-0.423 -0.3701,-0.423 z"
         id="path14" /><path
         style="fill:#fbdd27;fill-opacity:1;stroke-width:0.465738"
         d="m 1050.3961,1463.2139 c 1.3402,-2.6116 1.3746,-2.646 1.3746,-2.646 l 0.3092,1.0996 c 0,0 0.034,-1.0996 0.6528,-1.993 0.6186,-0.8935 1.1129,-1.5266 1.3214,-1.8845 0.1567,-0.2688 -0.3935,1.4034 0.259,1.369 0.6529,-0.034 0.3092,-0.5498 0.5154,-1.1339 0.2061,-0.5842 0.1031,-1.3402 0.378,-1.6494 0.2749,-0.3093 -0.2749,0.6185 0.2233,1.134 0.4983,0.5154 0.8591,1.2198 0.9278,1.7181 0.069,0.4982 0.034,0.4639 0.2234,0.859 0.189,0.3952 -0.034,0.5842 0.2233,0.8591 0.075,0.7487 -0.074,0.22 0.2524,0.014 0.3264,-0.2061 0.5208,-0.4778 0.5208,-0.4778 0,0 -0.4124,0.7904 -0.2405,1.1512 0.1718,0.3608 0.4467,0.4124 0.2405,0.6357 -0.2062,0.2234 -0.3093,0.5498 -0.7732,0.7904 -2.0281,1.3418 -3.7911,1.2839 -6.2128,-0.054 z"
         id="path13"
         sodipodi:nodetypes="cccsssssscscscssscc" /></g><g
       id="g20"
       transform="matrix(15.856714,0,0,15.856714,-14684.783,-22834.01)"><path
         style="fill:#e41518;fill-opacity:1;stroke-width:0.600001"
         d="m 1076.4059,1442.6787 c -1.9407,1.3148 -2.3477,1.6591 -2.379,2.1599 -0.031,0.5009 0.2191,0.5009 -0.313,0.8452 -0.5322,0.3443 -1.5025,0.313 -0.9078,1.5025 0.5948,1.1895 1.4086,2.1599 0.9078,2.2538 -0.5009,0.094 -1.1582,-0.5321 -1.5964,-0.7512 -0.4383,-0.2192 -0.094,-0.6887 0.1565,0.1252 0.2504,0.8138 0.6886,1.4712 -0.3131,1.5651 -1.0017,0.094 -1.4712,-0.5948 -1.5338,-1.5025 -0.063,-0.9078 -0.063,-2.066 -0.063,-2.066 0,0 -1.4712,3.4433 -0.8765,5.1023 0.5948,1.6591 1.8469,2.2538 1.346,2.2851 -0.5008,0.031 -1.2521,0 -1.659,-0.313 -0.4069,-0.313 -0.9391,-1.1895 -0.9391,-1.1895 0,0 0,1.1582 0.6261,1.6903 0.626,0.5322 1.0643,0.6261 0.9391,1.2835 -0.1252,0.6573 -0.8452,0.5008 0.094,1.1269 0.939,0.626 2.0409,1.1841 1.7279,1.9353 -0.3131,0.7513 -0.2254,0.9445 -0.5697,0.5376 -0.3444,-0.407 -0.4383,-0.1565 -0.4383,-0.1565 0,0 0.407,-0.3444 -0.8764,-1.0643 -1.2835,-0.72 -1.5339,-0.4696 -1.5339,-0.4696 0,0 2.0347,1.753 1.5339,1.7843 -0.5009,0.031 -0.9391,-0.5009 -0.9391,-0.5009 0,0 -0.3757,1.6591 1.2521,2.6295 1.6277,0.9703 2.379,1.6903 5.1649,1.659 4.5029,0.2557 9.8923,0.8664 7.9607,-5.127 -0.094,-0.4695 -0.4793,-0.4449 0.053,-1.0083 0.5322,-0.5635 0.5948,-2.9738 0.5948,-2.9738 0,0 -0.6574,0.8139 -0.9704,0.7513 -0.3131,-0.063 -0.3444,-0.7513 0.1252,-1.1582 0.4695,-0.4069 1.1895,-2.2538 1.1895,-2.5668 0,-0.3131 -1.8156,-2.1599 -1.753,-3.1929 0.063,-1.033 0.2191,-1.6277 0.2191,-1.6277 0,0 -1.0329,1.5651 -0.8451,2.5981 0.1878,1.0329 1.8155,1.659 0.9078,2.7546 -0.9078,1.0956 -1.2834,1.7843 -1.2834,1.7843 0,0 0.3756,-0.5635 -0.2505,-1.44 -0.626,-0.8764 -0.9704,-1.5025 -0.9704,-1.5025 0,0 0.063,1.5964 -0.313,1.4399 -0.3756,-0.1565 0.1878,-2.7859 -0.3443,-3.4746 -0.5321,-0.6886 -0.72,-1.0017 -0.72,-1.0017 0,0 0.094,1.3774 -0.2504,1.3774 -0.3443,0 -0.5948,0.094 -0.8452,-0.8765 -0.2504,-0.9704 -0.1565,-2.2851 -0.1565,-2.2851 l -1.0643,-0.7826 -0.4695,1.0017 c 0,0 -0.6887,-0.5634 -0.3443,-1.5025 0.3443,-0.9391 0.7199,-1.6591 0.7199,-1.6591 z"
         id="path5"
         sodipodi:nodetypes="csssssssccssscssssscscscssssccssccsscscsscsscccscc" /><path
         style="fill:#fd8526;fill-opacity:1;stroke-width:0.600001"
         d="m 1072.3343,1462.7779 c -1.9478,-3.4529 -0.3536,-2.9834 0.1776,-3.2933 0.5313,-0.3099 -0.2656,-0.6641 -0.088,-2.1249 0.1771,-1.4609 0.664,-2.6119 0.664,-2.6119 0,0 -0.1771,2.302 0.2214,1.6379 0.3984,-0.664 -0.7083,-2.1248 -0.3542,-2.966 l 0.3542,-0.841 c 0,0 0.5755,2.7003 0.8854,1.4165 0.3098,-1.2837 0.088,-3.0102 0.088,-3.0102 0,0 0.8854,0.9739 0.8854,0.2656 0,-0.7083 -0.487,-1.4166 -0.487,-1.4166 0,0 1.6822,0.044 1.7707,0.664 0.089,0.6198 -0.4426,0.3984 0.1771,0.8411 0.6198,0.4427 1.0182,0.8411 0.5755,1.4166 -0.4427,0.5755 -0.5755,1.1067 -0.089,1.151 0.4869,0.044 0.4869,-0.4427 0.8411,-0.7968 0.3541,-0.3542 0.6197,-0.2656 0.6197,-0.2656 0,0 -0.7968,0.664 -0.3984,1.0624 0.3984,0.3984 0.487,0.6198 0.7083,0.089 0.2214,-0.5312 0.2214,-0.177 0.1771,-1.0624 -0.044,-0.8854 -0.2213,-1.1953 -0.2213,-1.1953 0,0 0.4427,0.1328 0.9296,1.2396 0.487,1.1067 0.6094,3.193 0.5781,3.4904 -0.031,0.2974 0.8138,-0.5321 0.8138,-0.7513 0,-0.2191 0.2348,0.3913 0.078,0.72 -0.1565,0.3287 -0.6104,0.5165 -0.5948,0.9704 0.016,0.4539 0.3287,0.5791 -0.016,1.1269 -0.3443,0.5478 -1.1895,1.3773 -1.2051,1.4869 -0.016,0.1095 0.1408,0.1721 0.8764,-0.4383 0.7357,-0.6104 0.9078,-0.8608 0.9078,-0.8608 0,0 -0.5791,0.5948 -0.2661,0.8765 0.3131,0.2817 0.4383,0.313 0.4539,0.7669 0.016,0.4539 -0.016,1.4399 -0.2034,1.5338 -0.1878,0.094 -1.6904,1.1269 -2.1912,1.2834 -0.5009,0.1565 -3.9643,0.2823 -4.3198,0.2505 -0.9757,0.036 -1.5427,-0.2659 -2.3488,-0.655 z"
         id="path15"
         sodipodi:nodetypes="csccsscscsccsssscssscsssscscscscsssc" /><path
         style="fill:#fddd4e;fill-opacity:1;stroke-width:0.600001"
         d="m 1073.9586,1463.5675 c -1.4166,-2.3905 -1.3723,-2.3463 -1.4166,-2.6119 -0.044,-0.2656 1.3345,0.7839 1.3345,0.7839 0,0 0.6686,-0.2245 0.027,-2.0123 -0.5972,-1.6636 -0.2104,-1.2949 0.4537,-0.4538 0.664,0.8411 1.0624,1.151 1.0624,1.151 0,0 0.3099,-0.664 0.044,-1.2838 -0.2656,-0.6197 -1.4166,-1.6822 -0.8411,-2.6561 0.5755,-0.9739 0.8411,-2.3463 0.8411,-2.3463 0,0 -1.1067,1.5494 0,2.4791 1.1067,0.9296 1.7265,0.5755 1.6822,1.4166 -0.044,0.8411 -0.044,1.1067 -0.044,1.1067 0,0 0.5312,-0.2213 0.6641,-0.7083 0.1328,-0.4869 0.3984,0.1771 0.3984,0.8411 0,0.664 0.3099,0.487 0,1.3281 -0.3099,0.8411 -0.3099,1.0182 -0.3099,1.0182 l 1.1067,-0.974 c 0,0 0.044,0.6641 0.3099,1.0625 0.2656,0.3984 0.3984,1.0624 0.3984,1.0624 0,0 -1.1067,0.8412 -1.8593,0.8854 -0.7526,0.044 -3.8514,-0.089 -3.8514,-0.089 z"
         id="path16"
         sodipodi:nodetypes="cscsscsscsscsssccscscc" /></g><g
       id="g21"
       transform="matrix(15.856714,0,0,15.856714,-14532.65,-22813.976)"><path
         style="fill:#ce1c1d;fill-opacity:1;stroke-width:0.600001"
         d="m 1092.3067,1451.8921 c 1.0017,1.1895 1.6277,1.5651 1.1895,2.5042 -0.4383,0.9391 -0.8823,1.1079 -1.8214,2.6465 -1.5404,2.5236 3.2828,5.257 4.4724,5.8204 5.2962,2.5083 12.329,-0.5561 12.5008,-5.8969 0.082,-2.5532 -0.3143,-5.6376 -0.3143,-5.6376 0,0 -2.0034,2.8172 -2.2538,2.692 -0.2504,-0.1252 1.2521,-2.379 1.0643,-3.7563 -0.1878,-1.3773 -0.1252,-1.753 -1.6278,-3.0677 -1.5025,-1.3147 -3.005,-3.3181 -3.0676,-4.3198 l -0.063,-1.0016 c 0,0 -0.6886,1.7529 -0.2504,3.3806 0.4383,1.6278 1.2522,1.753 0.8765,2.6295 -0.3756,0.8764 -1.6903,1.8781 -2.066,1.6903 -0.3756,-0.1878 -0.1252,-1.3147 -0.8138,-1.8156 -0.6887,-0.5008 -2.1912,-1.4399 -2.1912,-1.4399 0,0 1.1269,1.1269 0.3756,1.8782 l -0.7513,0.7513 c 0,0 -0.5008,-1.5026 -2.1285,-2.1912 -1.6278,-0.6887 -2.2538,-1.753 -1.6904,-3.1929 l 0.5635,-1.4399 c 0,0 -2.3164,3.2554 -1.8782,4.6328 0.4382,1.3773 1.6904,1.1269 2.1286,2.379 0.4382,1.2521 1.0017,3.7563 0.4382,3.9441 -0.5634,0.1878 -0.9391,-0.9391 -0.9391,-0.9391 z"
         id="path6"
         sodipodi:nodetypes="csssscsssccsssscscsscssscc" /><path
         style="fill:#fd7b14;fill-opacity:1;stroke-width:0.45553"
         d="m 1095.403,1457.537 c 0.6655,0.9031 0.8556,1.8537 0.6655,2.3765 -0.1902,0.5229 -1.7754,0.9637 -1.3476,1.3439 3.0351,4.7139 11.0163,3.4634 10.9013,-3.2451 -0.1861,-1.1113 0.2377,-1.9963 0.2377,-1.9963 0,0 -0.3328,0.9506 -0.713,1.0457 -0.3802,0.095 -1.7111,0.7605 -1.7586,0.3803 -0.048,-0.3803 0.5704,-1.5686 0.7129,-2.3291 0.1426,-0.7605 -0.808,-3.1371 -1.0456,-3.5648 -0.2377,-0.4278 0.01,-0.1046 -0.048,1.8062 -0.013,0.4507 -1.0006,-1.3255 -1.0006,-1.3255 0,0 0.081,-0.3034 0.2877,1.6106 0.1052,0.9731 -0.8891,1.6905 -1.5954,1.5034 -0.6508,-0.1724 0.1219,-1.028 -0.5912,-1.9311 -0.713,-0.9031 -0.9031,-1.426 -0.9031,-1.426 0,0 0.3328,1.0932 -0.1901,1.1408 -0.5229,0.048 -1.7587,-0.7605 -1.7587,-0.7605 0,0 0.8556,1.0932 0.9507,1.6635 0.095,0.5704 0,0.618 0,0.618 l -1.3784,-0.9506 c 0,0 1.4734,0.6654 0.903,1.9487 -0.5703,1.2834 -0.6654,2.4716 -1.1882,2.1389 -0.5228,-0.3326 -2.1389,-0.3802 -2.1389,-0.3802 z"
         id="path17"
         sodipodi:nodetypes="cssscscssscsascccsccsscc" /><path
         style="fill:#fddd4e;fill-opacity:1;stroke-width:0.335442"
         d="m 1097.1845,1463.4574 c -0.6301,-1.4351 1.1985,-1.319 1.4086,-2.579 0.2099,-1.26 0.595,-1.435 0.3499,-1.995 -0.2449,-0.5601 0.665,0.595 0.7,0.945 0.035,0.35 0.1751,0.14 0.4201,-0.455 0.245,-0.595 0.315,-1.0151 0.105,-1.505 -0.21,-0.4901 1.68,0.4199 1.645,1.4 -0.035,0.98 -0.175,1.925 -0.175,1.925 0,0 0.595,0.035 0.525,-0.42 -0.07,-0.455 0.315,0.07 0.035,0.805 -0.28,0.735 0.281,1.9534 0.067,2.1342 -1.0837,0.9161 -5.2772,0.097 -5.0807,-0.2552 z"
         id="path18"
         sodipodi:nodetypes="csscssccsssc" /></g></g></svg>
